<?xml version="1.0" encoding="utf-8"?>
<!-- Generator: Adobe Illustrator 24.1.3, SVG Export Plug-In . SVG Version: 6.00 Build 0)  -->
<svg version="1.1" id="Layer_1" xmlns="http://www.w3.org/2000/svg" xmlns:xlink="http://www.w3.org/1999/xlink" x="0px" y="0px"
	 viewBox="0 0 652 652" style="enable-background:new 0 0 652 652;" xml:space="preserve">
<style type="text/css">
	.st0{fill:#010101;}
	.st1{opacity:1.000000e-02;}
	.st2{opacity:0.5;fill:#D12627;enable-background:new    ;}
</style>
<g id="artwork">
	<g>
		<path class="st0" d="M120.4,283.2c3.5-0.1,6.6-2.1,10.1-2.4c0.9-0.1,2.3,0.2,2.7-0.8c2.1-0.8,3.9-2.3,6.1-2.8
			c0.3-0.3,0.6-0.6,0.9-0.9c0-3,2.5-5.2,3.8-7.7c0.7-1.2,0.4-3.1,1.6-3.9c0-0.1,0.1-0.1,0.1-0.2c5.7,0.3-0.6,7.1-1.7,9.6
			c-2.7,5,5.6,5.1,8.2,7.6c4.8,2.4,11,2.1,16.3,3.1c2.1,0.2,2.9-3,1.1-3.9c-4.6-3.3-14.3-1.7-15.5-8c0-4.1,4.1-6.6,7.4-8
			c5.9-0.5,9.8,3.3,14.1,6.4c6.7,2.3,3.1,7-1.9,2.4c-3.9-4.4-11-9.1-15.7-3.4l0,0c-0.1,0-0.2,0-0.3,0c-0.6,0.9-1.4,3.3,0.2,3.8
			c3.9,4.3,11.4,1.6,14.7,6.9c0.4,2.6-0.9,6.1,1.3,8c3.9,1.2,9.1-0.1,12.7-1.9c1.8-1.7,1.5-4.6,3.2-6.4c4.8-5.4,14-3,18.3,1.8
			c1.5,5.5,9.9,4,14,3c5.1-0.4,1-4.5-1.1-6c-0.9-1.6-2.9-1.7-4.2-2.6c-3.8-2.6-7-6.8-11.5-8.1c-2.4-1-20.2,3.7-14.5-2.3
			c3.8-1.4,8.2,1.5,11.6-0.9c-0.8-4.4-21-11.5-25.8-11.9c-4.3-1.8-14.8-0.6-7.4,4.9c2.1,1.5,11.4-1.8,9.1,3
			c-0.6,1.3-3.1,0.9-4.2,0.9c-2.6,0.2-4.8-1.6-7.2-2.4c-1.9-1.5-3.9-3.7-2.8-6.3c-1.1-2.5-5.4-2-6.8-0.2c0.2,2.8,0,11.5-4.6,8.8
			c-0.6-1.2,0.2-2.1,0.8-3c1.8-4.3,2-7.9-3.9-6.2c-9.6,0.6-5.6,11.9-12.6,16.1c-5.7,4.1-9.7-2.8-13.6-0.8
			C119.8,271.1,112.1,282,120.4,283.2z M162.9,261.4l0.1-0.2l0.2,0.2L162.9,261.4z"/>
		<path class="st0" d="M179.1,300c0,0.4-0.3,0.5-0.5,0.9c-6.4-0.5-5.4-10.3-9.2-13.9c-4.2-0.9-8.5-0.8-12.7-1.5
			c-1.5,0.3-2,2.5-1.2,3.6c0.8,6.3,6.4,9.4,11.1,12.6c3,2.8,1.9,8.9,6.9,10.1c1.4,0.4,2.9,0.6,4.3-0.2c1.7-0.2,4.4,0,4.7-2.3
			c0.6-1.4-0.2-4,1.6-4.8c3.9-2.4,1.6,19.2,8.4,15.6c3.9-3.6-3.2-11.4,2.6-15.2c2-0.8,2.4-1.8,2.2-3.9c-0.5-8.2,12.6-10.5,9.1-16.3
			c-2.3-3.8-11.1-6.4-13.9-2c-3,5.2-4.1,11.4-1.4,17c-3.2,5.3-3-6.5-4.1-7.9c-0.3-0.4-0.7-0.6-1.1-0.7c-2.6-1.4-6.6,0.1-9.5,0.6
			c-2.1,1.2-0.9,4.3,0.9,5.3C178.1,297.7,179.4,298.4,179.1,300z"/>
		<path class="st0" d="M279.9,384.4c-6.1,14.4,6.5,6.7,12.6,18.1c3.9,0.4,3.1-5.3,3.1-7.8c-0.5-4,3.1-7.1,3-10.8
			c-0.6-2.4-4-2.6-6-3.1c-4-1-6.1-5-9.1-7.4C278.2,371.7,281.3,381.5,279.9,384.4z"/>
		<path class="st0" d="M491.1,266.3c-1.9-23.3-12.6,10.1-18.6,12.4c-9.9,7.3-19.1-6.8-26.5-4.8c-3.6-0.4-6.1,4.4-2.4,6.1
			c4.5,4.6,8.7,8.6,6.2,16c-0.3,1.3-1.9,4.7-0.3,5.5c0.4,0.2,0.7,0.6,0.6,1.1c7.2,4.6,6.1-3.3,6.8-8c3-2.8,4.3,3,3.5,5.1
			c-3,7.6-6.9,17.9,0.9,24.1c4.2,1.4,10.8,1.5,13.6-2.2c0.4-3.9-1.7-7.7-5.3-9.4c-1.6,0.5-2.1-1.9-2.5-3c-0.1,0-0.1-0.1-0.2-0.1
			c-0.3-1.8,1.5-3.5,1.5-5.4c0,0,0-0.1,0.1-0.2c-0.3-2.7-2.4-5.1-0.9-7.9c3.9-12,18.1-7.5,24.1-13.8
			C491.3,276.6,492,271.4,491.1,266.3z"/>
		<path class="st0" d="M632.6,492.4c-5.4-3-32.5-9.9-26.4-18.2c5.3-2,11.2-0.5,16.8-0.3c0.2-0.1,0.4-0.3,0.5-0.5
			c8.3-0.6,14.3-12.9,1.3-8.6c-8.5,0.9-17.3,0.2-25.7,0.5c-2.1,1.4-4.6,3.9-4.5,6.5c2.7,2.9,4.2,7.6,2,11c-1.1,2.9-3.7,5-6.8,5.5
			c-7.5,3-11.4-6.7-27.4,1.5c-8.8,9.8,14.6,21.4,13.2,12.2c-0.8-0.4-1.2-1.3-1-2.1c-0.4-0.2-0.7-0.5-0.8-0.9
			c-10.9-5.7,26.5-1.6,28,1c6.8,3.9,9.5,16.3,19.5,13.6c5.1-0.2,6.6-8,1.3-9.3c-2.1-2.1-4.4-3.9-6.9-5.5c-3.3-3.2-5.8-9.2-10.9-9.5
			c3.7-4.7,8.5,6.8,13.1,7c3.2,2.6,18.3,9.8,18.2,1.8C637.1,495.6,635,493.1,632.6,492.4z"/>
		<path class="st0" d="M640.2,478.5c-7-1.8-14.7-1.4-22-2.6c-2.8,0.6-7.8-2.2-9.5,1c0,0,0,0.1,0.1,0.2
			C607.5,484.9,653.2,494.2,640.2,478.5z"/>
		<path class="st0" d="M459.1,278.4c-0.1-0.1-0.1-0.1-0.2-0.1c0.9,0.8,2,1.2,3.2,1.3C461.1,279.3,460.1,278.9,459.1,278.4z"/>
		<path class="st0" d="M461.1,235.1c-1,3.4-4.4,6.6-7.8,7c-4.4,1.3-7.1-2.4-10.6-3.9c-4.2,2.2-4,7.6-4,11.7c0.7,3.9,0,8-1.9,11.5
			c-0.1,0-0.1,0.1-0.3,0.1c-3,5.8-15.9,8.4-11.3,16.7c0.4,8.5,17.6,10.6,12.5,20.1c-1.9,4.1,3.6,6.1,6.1,3c2.9-3.5,4.1-8,3.4-12.5
			c-0.6-2-2.3-3-4-3.9c-8.5-5.6-10.4-11.2,0.3-14.6c0,0,0.1,0,0.2-0.1c1.3-1.2,4.1-2.6,5.6-1c0.6,0.1,1.1,0.5,1.3,1
			c4.9,3.8,10.7,7.2,16.9,8c7.8-2.7,0.3-7.4-1.8-11.1c0,0,0,0-0.1,0c-1-0.8-2.3-1.4-3-2.5c-3.3-0.5-7.8-9-4.3-10.8
			c5.4-6.4,10.7-13.3,10-22.3c-0.7-16.1,7.5-10,8.8-18.8c-0.1-0.4-0.2-0.9-0.4-1.3c-0.1,0-0.1,0.1-0.2,0.2c-1.9-4.5-7-0.2-9.8,1.2
			c-2,2-2.6,4.8-3.2,7.5l0,0c-0.7,2.9-1.2,5.9-1.6,8.9l0,0C462,231.3,461.6,233.2,461.1,235.1z"/>
		<path class="st0" d="M471.4,262.1c-2.5,0.1-4.4,3.1-2.3,5.1c1.7,1.2,2.5,3.7,4.6,4.2c3.3,0.9,8.4-10.1,9.6-12.9
			c2.8-3.2,1-9.9-3.8-9.2C476,251.5,478.4,257.5,471.4,262.1z"/>
		<path class="st0" d="M456.4,227.6c-1.8-1.5-4.5-1.6-6.7-1c-3.2,1.6-5.1,5-4.8,8.6c0.7,4.1,6.4,5.4,9.6,3.8
			C457.7,236.6,461.8,229.9,456.4,227.6z"/>
		<path class="st0" d="M447,217.1c-2.5-6.6-8.8-16.5-16.7-11.1c-1.8,5,4.4,6.6,7.2,9.4c5,3.7,2.3,10.4,5,14.8
			c2.9,0.3,2.5-4.8,5.4-5.5c3-1.5-0.3-4.8-0.8-7C447.1,217.6,447,217.3,447,217.1z"/>
		<path class="st0" d="M345.4,246.9c-5.6-1-7.4,4.7-6.7,9.2c2.6,4.8,10.5,3.4,12.3-1.3C350.5,251.3,349.1,247.5,345.4,246.9z"/>
		<path class="st0" d="M496.4,513.7c4.3,1.5,8.8-3.6,6.4-7.7C496.9,500.7,488.3,509.5,496.4,513.7z"/>
		<path class="st0" d="M341.1,424.4c0.6-3.4-2.5-4-5.2-4.4c-15.6-1.7,1.1,5.2-24,19.3c-4.5,3.1-2.6,14.2,3.6,11.5
			c2.4-2,3.4-5.9,5.3-7.9c0,0,0,0,0-0.1C327,436.2,338.4,434,341.1,424.4z"/>
		<path class="st0" d="M336.8,390.8h0.2c2.4,1.8,7.1,0.3,8.5-2.2c5-7-3.9-12-9.7-7.8C332.9,383.3,332.8,389.2,336.8,390.8z"/>
		<path class="st0" d="M230.8,338.2c-11.1-16.6-8.5,3.3-17.5,0.7c-1.5-0.3-3.5,0.2-3.3,2.1c-2,5,13.3,3.5,8.4,8.4
			c-3.9,0-8.6-3.4-10.7-6.6c-0.9-1-1.3-2.6-2.6-3.1c-1.7-0.5-4.5,0-5.1,1.8c-1.1,2.2-3,4.8-5.8,4.9c-0.8,2.6,0.2,6.1,0.7,8.9
			c-0.3,1.2-0.1,2.6,0.7,3.6c9.6-0.3,11.9,9.7,6,16.3c0.3,2.8,2.3,2.5,4.5,2.3c1.7,0.3,3.3,0.8,4.8,1.6c0.2,0,0.5-0.1,0.7-0.2
			c1.2,0.3,2.4-0.2,3.1-1.2c0.1-0.7,0.5-1.5,0.1-2.2c-2.5-2-1.3-5.7-1.8-8.3c-3.5-3.4-8.9-9.7-3.3-13.8c5.8-2.9,8,3.2,12,4.8
			c1.9,0,1.8-1.6,2.2-3c0.5-1.3,1.1-2.6,1.9-3.8c3.2-2.9,7.4-1.1,11.1-0.6c3.1,0.3,3.6-2.4,2.9-4.8c-0.6-2.6-3.7-3.4-5.3-5.3
			c0,0.1,0.1,0.1,0.1,0.2C233.3,340.2,232.1,339.1,230.8,338.2z"/>
		<path class="st0" d="M312.8,478.7c0.9-6.8,9.9-7.7,11-13.8c2.5-6.6-9.2-4.7-8,0.3c-1.3,7.2-8,5.6-12.7,2.5c-5.3,0.5-11,3.2-16-0.4
			c-4.7-4-1.6-10.1,2.3-13.5c2.4-2.2,6.8-2.7,6.7-6.8c1.2-7.5-5.9-5-10.3-3.5c-6.7,2.5-20.9,1.7-17.5-8.7c-4.7,0.3-10.4,2-14.7,0.5
			c-6.1,0.1-14.3-3.5-19.3,1c-0.7,1-1.6,2.1-3,1.6c-2.9-1-0.3-4.6,1.2-5.5c2.4-1.6,5.7-1.7,8.5-1.5c6.9,0.9,13.7,2.8,20.7,0.8
			c8.2,0.9,18.4-1.8,19-11.3c-1.7-6.1-6.5-3.3-9.5,0c-1.5,1.3-3.2,2.3-5.1,2.9c-5.3,3.2-13.6,1.7-19.7,0.9c-3.5-0.8-8.4-4-12.4-3.8
			c-4.1,1.2-6.5,7-10.5,8.2c-2,1.9-6.3,2.1-6.9,5c0.2,4.8,7.2,16.9,11.4,19.1c3.7,1.4,7.8,1.2,11.3-0.5c0.8-1.9,1.7-6.5,4.8-5.8l0,0
			c0.9,0.2,1.6,1.1,1.5,2.1l0,0c-0.7,6.4-9,9.1-14.3,7.9c-9.1,2.1,16.1,18.2,19.7,17.8c2,2.5,14.7-2.2,19.5-1
			c4.6,1.5,10.8,1.9,7.5-4.7c-2.7-4.1-7.7-3.5-11.9-4.4c-9.5-1.3-13.2-12.3-2.6-15.3c-0.2-0.1-0.4-0.1-0.7-0.2
			c3.8-0.5,6.7,1.9,10.2,3c0,0,0,0.1,0,0.1c2.6,0.2,6.3,0.8,3.1,3.6c-3.7,0-7.3-1.3-10.1-3.6c-7.7-1.7-9.3,8.6-0.9,9.5
			c6.3,1.1,17.6,2.8,15.9,11.5c0,0.1,0.1,0.1,0.1,0.2c-0.3,3.2,3,4.5,5.6,5.6c4.8,2.4,8.6,6.4,13.9,7.8c4.6,3.6,11.8,2.6,10.8-4.6
			C312,480.9,312.4,479.8,312.8,478.7z M245.3,462.8c0,0.1,0,0.2,0.1,0.3c-0.1-0.1-0.3-0.2-0.4-0.4
			C245.1,462.8,245.2,462.8,245.3,462.8L245.3,462.8z"/>
		<path class="st0" d="M356.8,475.9c6.3,1.8,10.6,8.3,17.3,8.2c6.9-0.1,10.4-11.9,2-12.3c-6.5,0.2-13.4,4.2-19.6,0.2
			c-3.4-0.5-5.7-3.6-5.2-7c0.4-2.6,2.4-4.7,5-5.2c6.3-1.4,16,3.9,20.3-2.2c-0.1-0.1-0.2-0.2-0.3-0.3c0,0,0.1-0.1,0.1-0.1
			c1.6-4.4,3.5-8.8,8.9-9.2c4-0.8,2.7-6.9-1.3-5.8c-6.3,0-12.7,0.5-18.2,4.2c-4.5,2.7-7.4,7.6-12.2,9.7c-3.1,1.1-10.4,3.1-11.8-1
			c-0.2-0.4-0.5-0.8-0.8-1c-0.9-2.9-0.8-6,0.1-8.9c2.2-2.8-1.3-6.2-3.4-8c-3.4-3.6-7.9,3-11.3,4.2c-4.5,4-5.6,11.5-11.6,13.5
			c-2.7,0.3-4.5-1-6-3.2c-0.6-1.9-1.5-3.7-2.7-5.4c0-1.5,0.1-3,0.3-4.6c0,0,0.1,0.1,0.1,0.1c10.2-14.9,20-7.5,19-31.3
			c0.6-2.4,3.6-6.6,0-8l-0.1-0.1c0,0-0.1,0-0.1,0c-3.9-1-13.2,9.1-9.3,12.2l0,0c1.4,2.3,3.3,5.3,2,8c-3.2,4.6-9.8,8.9-15.7,9
			c-9-0.7-11.1-12.5-15-19.1c-0.9-3.3,3.1-4.7,2.8-7.7c-2.4-7.5-13.3-5.4-16.7-12.1c-3.1-2.4-14-18.5-5.9-18.8
			c2.9,2.8-0.2,8.3,5,12.5c3.8,3.1,4.9-2.8,4.8-5.6c0-2.3-0.2-4.7,0.6-6.9c0.5-1.4,2.5-3.5,2.1-5c-2.7-3.6-13.1,2-19.9-5.8
			c0.1-0.1,0.2-0.2,0.2-0.3c-3.1-5.3-0.6-11.5-1.7-17.1l0.3,0.3c0.1-5.5-9-7-8.3-0.7c-0.1,0-0.1-0.1-0.2-0.1
			c0.1,2.1,1.6,3.8,1.5,5.8c-0.2,1-1.1,1.6-2,1.5c-0.6-0.1-1.1-0.5-1.3-1c0,0.1,0,0.2,0,0.3c-3-5.4-0.4-15.9-8.2-17.4
			c-1.9-0.4-8.6,0.2-6.2,3.2c4.3,2.8,9,6.1,8.2,12c-0.3,1.2-0.3,2.4-1.3,3.2c-6,3.1-14.3-4.1-15,6.5c7,8.2,7.9-4.3,14.3-2.3
			c1.4,0.5,2,1.9,2.8,3.1c0.9,2,3.1,2.6,4.1,4.4c7.4,4.3,18.8,5.2,6.9,14.4c-2.4,1.7,6.6,3.8,4.9,11.8c-0.1,1.2-0.3,2.5-0.7,3.7
			c1.9,3.8,6.8,6.2,6.4,11.1c0.2,0.1,0.3,0.3,0.5,0.4c-1.6,7.9-10,10.7-17.2,9.7l-0.2,0.1c-3.2-1.1-6.2-2.3-8.6-4.7
			c-3.4-3.5-10.9-0.7-10.7-8.2c2.2-3.5-0.2-6.4-3.1-8.4c0,0,0-0.1,0-0.1c-1.4-1.6,0.5-3.1,2.1-2.2c0,0,0.1,0,0.2-0.1
			s0.1,0.1,0.2,0.2c0.9,0.5,1.7,1.2,2.4,2l0,0c1,1.5,2.8,3.7,1.6,5.5c-2.6,6.4,1.1,6.5,6.2,6.6c2.4,0.8,3.7,3.6,5.9,4.9
			c7.1,6.3,26.3-3.4,14.5-12.2c-0.7-1.8-2.9-2.6-3.9-4.2c4.1-7.9-1.5-11.7-6.9-16.5c-3.8-1.7-6.2-7-10.2-7.6c-1.1-0.4-3.6,1-3.7-1
			c0-0.9,0.9-1.4,1.6-1.7c7.3-1.7,16.1,16.9,20.6,3.9c-1.2-3-5.5-1.9-7.9-3.4c-3.5-1.9-5.9-5.3-8.1-8.5c-3.1-2.9-5.3,7.5-14.9,2.6
			c-1.9-2-6,0.3-7.3-2.6c-1.4-1.3-2.7-3.4-4.7-4c-1.6-0.1-3.4,1.3-2.1,2.9c1,1.1,1.7,2.5,1.9,4c-0.3,0.8,0.1,1.8,0.9,2.2
			c0.4,0.1,0.7,0.2,1.1,0.1c3.1,0.9,11.4,0.7,10.4,5.4c-2.4,0.1-4.2-1.5-6.4-2.2c-0.5,0.1-1.2,0-1.6,0.4c-4.7,2.2,2,5.7,3.1,8.1
			c-0.1,1.1-1.3,1.2-2.2,1.2c0,0-0.1,0.1-0.2,0.1c-1.6,0.8-2.1,2.4-2.7,3.9c0.4,3.5,6.3,3.9,8.9,2.8c2.6-0.9,3.2-6.3,6.6-4.3
			c2.9,2.4,5.1,1.3,7.7-0.7c3.1,0.1,7.9,7.4,6.6,10.5c-0.6,1.2-1.4,2.4-1.1,3.8c1.7,1.4,2.7,5.6-0.7,5c0,0,0.1,0.1,0.1,0.1
			c-2.4-0.6-4.1-4.7-2.6-6.7c0-1.6,1.9-2.9,1.8-4.4c-1.2-1.7-1.7-4.1-3.3-5.5l0,0c-0.9-0.5-2.1-0.2-2.6,0.7
			c-0.1,0.1-0.1,0.2-0.1,0.3c-2.9,2.1-6.1-2.9-8.6,0.2c-1,1.7-3.1,2.4-3.9,3.9c-10.4,2-12-8.3-24.6-7.5c-5.4-5.1,5.5-9.8,1.3-15.4
			c0,0.2,0,0.3,0.1,0.5c-3.7-7.1-8.7-1.9-7.3,4.2c0.1,4.7-1.7,9.8,0.9,14.1c6.6,1.7,12.6,5.3,14.6,12.2c0.6,2,0.3,5.9-2.7,5.7
			c-1.9-0.1-1.8-2.1-1.8-3.5c0,0.1,0,0.1,0,0.2c0.5-2.3-0.2-4.2-1-6.4c-11.7-11.1-15-1.6-8,9.3c1.6,3.3,5,14.3,8.8,14.1
			c3.4-3,7.9-0.4,11.7-1.6c2.2-3.6,0-6.3,0.5-10.1c3-4.4,4.6,3.8,4,5.9c0.2,11.3-9.8,4.4-15,8.2c-2.8,3.1,1.7,6.9,3.6,9.1
			c3.2,5.6,9.8,3,13.5-0.8c4.4-2.3,5.8-9.1,12-8.2c10.6,4.2,23.9,8.4,34.1,1.1c0.1-0.3,0.4-0.6,0.8-0.7c3.6-4.9,8.2-9.8,11.8-1.5
			c3.5,4.3,1.8,11.2-2.4,14.6c-2.1,1.8-5.4,1.9-7.4,3.8c-3.6,4.4,2.6,7.5,6.5,6.6c10.8-1.1,23.8-8.9,20.3,9.7
			c-4.2,3.2-12.8,6.5-10.2,13.2c0.6,0.4,1.2,0.7,1.9,1c0.2,0.2,0.3,0.5,0.3,0.8c4,1.5,7.7-2,11.6-2c3.3,0.3,9.9,6.6,10.5,0.2
			c0,0,0-0.1-0.1-0.1c1.5-3.9,6.6-5.7,10.4-6.3c0.5,0.3,0.8,0.7,1,1.1c4.2,2.3,2.8,10.5-1.5,12.4c1.3,2.1-9.6,4.7-7.5,12.4
			c-3.6,11.9,19.3,4.3,25.5,5.6l0.5-0.4c0.2,0,0.3,0,0.5-0.1c1.9-2.3,1-5.9-1-7.7c-2.6,0-5.2,0.8-7.8,0.8c-1.7,0-1.6-2.5,0-2.5
			c7.5,1.2,10.5-8.3,3-10.8c0-0.4,0.1-0.8,0.2-1.1c-1.3-6.2,9.4-0.3,6.6,9c0,0,0,0-0.1,0s0,0.1-0.1,0.2c0.2,0.4-0.1,0.9-0.2,1.3
			c0-0.2,0.1,0.2,0,0.1c0.3,0.5,0.8,0.8,0.9,1.4c1.8,1.1,3,3.1,3.2,5.2c-0.6,1-0.3,2.3,0.7,3c0.5,0.3,1.1,0.4,1.6,0.3
			c5-1.2,10.1-1.9,15.2-2.1c0.3-0.2,0.5-0.4,0.7-0.7c0.1,0,0.2,0,0.3,0c-0.1-0.2-0.1-0.4,0-0.6v0c0-3.9-9.8-3.4-12.8-5.5
			C349.7,476.3,354.5,474.4,356.8,475.9z"/>
		<path class="st0" d="M259.7,245.9c18.2,11.6,14.5-4.3,16.4-16.9c-0.1-1.3,0.2-2.6,0.8-3.7c0.2-3.4-2.2-6.2-5.2-7.7
			c-1.3-0.9-3.6-3.8-0.7-3.9c1.8,0.6,2.7,2.6,4.8,3c2.1-0.1,3.7-2.5,3.4-4.5c-0.6-1.9-0.7-3.6,0.6-5.2c5.7-6.1-2.8-13.7,7.8-31.3
			c1-7.3-16,5.2-17.4,7.7c-8.7,9.3,0.1,12.6,0.6,21.3c-0.3,1-1.3,1.9-2.2,1c-1.4-1.3-0.8-4.3-1.1-6c-4.2-14.8-17.3,12.8-4,16.1
			c3,2.5,4.2,6.1,5.7,9.7c1.1,4.5,2,9.8,0,14.2v0.1l0,0c-3.8,3.4-2.5-3.3-1.7-5.2c0.3-2.7-0.2-5.1-0.5-7.7
			c-1.8-4.2-4.9-13.7-10.8-11.6c-2.3,1.8-2.7,10.4-3.4,13C250.5,235.4,251.8,243.4,259.7,245.9z"/>
		<path class="st0" d="M400.8,133.5c2.2,1.4,8.8,1.4,6.9-2.6c-0.7-2.3-3.4-4-3.2-6.8c0.4-3.3,2-7.8,4.6-9.8
			c4.1-6.8,2.3-8.1-4.2-10.7c-0.9-0.2-1.6-0.9-1.6-1.8c-0.3-0.2,0.1-0.6,0.2-0.8c-0.4-1.6,1.9-4.4,2.8-1.7c0.5,3.2,5.2,4.4,7.9,5.5
			c3.8,1.3,6.4-2.3,7.6-5.3c0-0.1,0-0.2-0.1-0.2c0.4-4.2-5.1-10.4-9-6.4c-2.3,3,1.8,6.2,4.6,3.8c0.4,0.9,0.5,1.9,0.3,2.9
			c-2.1,0.8-4.4-0.6-5.8-2c-2.8-1.9-0.2-6.5-3-8.3c-9.5-7.3-21.3,13.1-19,21.2c0.5,1.4,2,2.1,3.4,1.7c14.2-5,7,8.1,6,15.4
			C398.6,129.5,399.1,132.4,400.8,133.5z"/>
		<path class="st0" d="M398.7,119.5c1-4.3,2.6-6.7-3.4-5.6c-0.2,0.1-0.4,0-0.5,0.1c-2.3,0.3-4.3,1.2-6.4,1.8
			c-5.6,3-2.3,8.2-5.5,12.4c-1.8,2.1,0.7,4.4-1,6.6c-2,1-1.6,4.8,1,4.7c1.8-0.4,3.5-1,5-2c3.2-1.4,11.6-1.2,9.1-6.5
			C394.4,128.3,398.8,123,398.7,119.5z"/>
		<path class="st0" d="M429.1,104c0.8,2.3,1.5,7.6,5.1,5.9c3.8-2.9,1.6-8.8,4.4-12.3c1-2.5,6.9-3.7,6.1-6.4c0-0.1,0.1-0.1,0.2-0.2
			c-5.7-0.3-11.8-2-13.9-7.7c-0.4-2.9,1-6.6-1.6-8.8c0,0,0,0,0-0.1c-0.5-0.5-1.8-0.8-1.7-1.7c-0.8-0.9-1.8-1.5-3-1.7
			c-11,1.1,2.4,11.8-4.2,19.2c0.1,0.7,0,1.4,0.6,1.9c1.7,1.3,2,3.5,3,5.2c1.9,1.8,3.7,3.4,4.8,5.8
			C428.9,103.4,428.9,103.7,429.1,104z M437.9,95.1C437.9,95.1,437.8,95.1,437.9,95.1c-0.3,0-0.5-0.2-0.7-0.3
			C437.4,94.9,437.7,95,437.9,95.1z M423.7,86.3l0.1-0.5v0.3L423.7,86.3z"/>
		<path class="st0" d="M403,84.5"/>
		<path class="st0" d="M363.1,67.2c7.2,9.2-14.8,20.5-6.7,27.9c2.8,2,7.5,1.6,10.7,0.6c4.2-10.6,12.5,5.3,16.6-7.1
			c0.6-1.2,1.6-2.6,3.1-2.7c3.4-0.3,0.7,4.2-0.1,5.3c-4.3,5.8-8.2,6-14.4,3.2c-1.1,0.8-1.5,2.3-0.9,3.6c4.8,1.8,11.9,9.4,5.8,13.5
			c-0.7,0.4-1.6,0.2-2.1-0.5c-0.8-4.4,2.3-5.1-3.3-9.5c-5.8-6.1-18.5-0.7-11.7,7.3c0.8,0,1.6,0.2,2.4,0.6c1.4-0.4,2.3,1.5,2.7,2.5
			c0.1,0,0.3,0,0.3,0.1c0.4,1.6,1.1,4,0,5.3c0,4.6-4.7,8.2-3.9,12.6c3.5,5.4,9.2-0.1,11-4.1c-1-8.5,5.8-9,3.9-1.6
			c-1.9,4.4-5.5,8.6-6.9,13.2c0.4,3.3,0.7,6.7-0.5,10l0,0c-4.2,15.9,16.8,4.7,23.7,2.5c7.2,4.9-15.7,9.1-18.4,8.7
			c-6.4,0.4-11.1-4.9-8.1-11c0.2-0.7,0-1.4-0.4-2c-2.3,0.6-4.6,0.8-7,0.8c-0.7,1-0.6,2.4,0.2,3.3c0,0.1-0.1,0.2-0.1,0.3
			c0.7,1.5,1.4,3.4,0.9,5c0.2,0.6-0.3,0.9-0.7,1.3c-2,0.6-2.4,2.8-2.2,4.6c-0.8,5.5,4.2,7.8,8.9,6.5c2.5-0.3,3.7-3.9,6.3-3.3
			c1.8,0.8,0.4,2.3-0.6,2.9c-9.8,6.7-15-3.3-20.5,6.4c-0.5,8.8,11.8,3.2,15.6,8.5c6.6,11,24.3,16.4,35.1,8.2
			c1.9-1.4,3.3-3.5,2.6-5.8c-6.5-8.6-19.5,3.6-25.7-5.3c-6.5-10.6,10.6-7.6,16.4-7.6l0.1,0.1c2,0,4.5-0.4,5.4-1.9
			c-1.8-3.5-1.5-7.6,0.7-10.9l0,0c1-1.3,1.8-2.7,2.2-4.3l0.1-0.1c0.5-0.9,0.1-2,0.2-2.9c-0.7-12.1,3.7-19.6-12.4-12
			c-3.9,0.2-8.4,4.3-12,1.5c-2.2-2.1-1.4-5,0.3-7.1c0.5-1.2-0.2-2.1-0.2-3.3c0-2.5,2.5-3.9,2.7-6.2c-0.1-2.2-0.5-4.6,0.8-6.5
			c6.9-6.7,3.2-3.9,4-12.2c1.9-7.2,5.9-13.8,11.5-18.8c5.5-8.4-9.5-11.7-14.9-7.8c-1.1,2.5-3.9,3.2-6.4,3.5
			c-2.4,0.2-4.2-3.4-6.5-1.3c-0.9,1.4-0.4,3.4-2.1,4.4c-6.8,4-0.9-9.9,3.5-8.3c2.6-0.1,5.1,2.3,7.6,2c0,0,0.1-0.1,0.1-0.1
			c0.5-0.4,1-0.8,1.4-1.3c1.4-2.6-2.3-3.2-2.7-5.4c0,0,0,0-0.1,0v-0.1c-6.2-6.4,2.9-11.8-1.2-14.2c-3.7-2.7-8.1-7-11.8-1.6
			c-3.3,1.4-5.9,5.3-4.6,8.5C361.7,65.7,362.5,66.4,363.1,67.2z"/>
		<path class="st0" d="M403.4,44.3c2.9,0.8,9.2-0.4,8.5-4.3c0.8-3.1-5.8-1-7.1-1.3C399.3,38,398.4,42.4,403.4,44.3z"/>
		<path class="st0" d="M374.6,52.7c2,1.1,3.6,3.1,5.7,4.1c0.6,1.1,0.9,2.5,0.7,3.7l-0.2,0.2c-2.4,4.7-3.2,9.2,1.9,12.5
			c6.7,3.2,17.9-0.8,19.3,10.1c0,0,0.1,0.1,0.1,0.1c0.3,0.8,1.2,1,1.5,1.7c0.6,0.2,1.2-0.1,1.4-0.6c0,0.1,0,0.1,0,0.2
			c2.1-3.2,4.1-7.4,8.5-7.1c-1.9-3.5-3.5-8-2.4-12.1l-0.1-0.1v-0.1c-0.9-0.7-2.1-0.9-3.1-0.3c-2.3,0.4-7.6-0.8-5.5-3.6
			c4.7-1.6,8.5,2.5,13.6-2c0.2-3.9,2.8-6.5,6.3-7.8c3.8-0.8,7.8-6.3,3.7-9.1c-6.7-4-5.2,7.7-12,8.8c-3.5,1.2-9.3,4.2-12.4,1.3
			c-0.9-3.4,6.6-1.1,8.6-2.3c0,0,0-0.1,0-0.1c9.1-1.1,11.1-15.5,4.1-9.4c-2,5.2-7.8,6.2-12.8,5.7c-0.9-0.8-1.7-1.7-2.4-2.8
			c0,0,0,0,0-0.1c-1-0.5-1.3-1.8-1.5-2.9c-0.1-0.2-0.3-0.5-0.5-0.6c-0.1-0.1-0.2-0.2-0.3-0.3c-2.5-1.2-5.2,0.1-7.5,1.2
			c-2-0.2-3.6,1.2-5.6,1.8c-0.2,1-1.8,0.7-2.3,1.5h0c-3.1,5.9,9.3,3.1,9.4,8.3c1.3,2.5,0.7,5,0.8,7.6c-2.8,5.9,5.5,5.9,9.2,7.2
			c0.8,0.7,0.5,2.6-0.5,2.8l-0.1-0.1c-19.6-5.1-7.8-5.6-11-16.7c-2.9-3.3-8.8-1.5-10.5-6c-1.6-2-3.7,1.1-5.4,1.8
			c-0.1,1.1,0.2,2.2,0.9,3.1C374.5,52.6,374.6,52.6,374.6,52.7z"/>
		<path class="st0" d="M347.6,107.1c0,1.1,0.1,2.2,0.3,3.3c-0.1,3.3,0.3,6.6,1.3,9.8h0.3c1.2,1.4,3.7,0.6,4.8-0.5
			c0.9-1,0.3-3.1,0.3-4.3c-0.2-2.1,0.8-4.3,1.3-6.8c-0.9-1.4-1.1-3.1-0.6-4.7c-0.4-1.3,0.5-2.7,1.3-3.8c1.9-2.4-4.4-3.4-4.4-6.2
			c-3.5-8.4,16.2-19.4,7.5-26.3c-1.7-0.3-5.1,1.1-4.1,3.3c-3.4,6.2-5.9,12.9-7.2,19.8c-0.3,0.3-0.3,0.8-0.2,1.2
			c-0.1,1.4-0.9,3.1-0.3,4.4C347.6,99.9,347.5,103.5,347.6,107.1z"/>
		<path class="st0" d="M355.4,121.8c-2.1,1.2-4.9,1-5,4.1c2.4,5.4,3.4,12.1,6.7,16.9c0,0.2,0.1,0.3,0.1,0.5c5.5,1.4,14.9-1.3,8-7.5
			c-2.2-1.6-5.6-2.6-6.6-5.8c-1.8-4.8,2.7-7.8,3.8-11.9c3.3-7.4-7.3-10.5-5.8-3c0.1,1.1-0.3,3.1,0.5,4
			C356.9,120.2,356.3,121.2,355.4,121.8z"/>
		<path class="st0" d="M424.4,52.8c-1.5,0.6-2.9,1.3-4.3,2.1c-4.6,3,0.9,8.4,6.2,1.4c3.1-2.2,7.3-1.4,9.5,1.7
			c0.1,0.1,0.2,0.2,0.2,0.3c3.6,1.6,10.1-0.5,11.2,5c0,0,0.1,0.1,0.2,0.1c0.2,1,0.4,1.9,0.4,2.9c-0.1-0.1-0.2,0-0.3-0.1
			c-2.3,5.1-0.5,4.7,2.3,8.5c2.5,2.7,1.9,7.3,0.8,10.6c0.9,1.5-1.8,3.8-2,5.5c1.2,3.8-4.6,4.5-6.2,6.9c-1.3,0.7-2.2,1.9-2.6,3.3
			c-1,4-0.3,9.6-5.1,11.3c0,0,0-0.1,0-0.1c-8.5,3.8-6.1-13.5-11.7-9.7c-2.1,2.8-4.5,4.8-8,5.4l0,0c0,0-0.2,0.2-0.2,0.2
			c-1.3,1-0.8,2.8-1.8,4v0.1c-1.6,2.4-3,4.9-4.2,7.5c-1,1.6-2.5,3.3-2,5.4c1.3,2.7,4.7,10.2,7.8,4.9c1.4-2.7-2.5-3.9-3.4-6
			c0-3.6,4.1-4.8,6.1-7.1c0.1-0.4,0.6-0.7,0.9-1.1v-0.1c0.6-1.1,1-2.3,1.3-3.5c0-0.1,0.1-0.1,0.1-0.2c0.1-0.7,0.6-1.1,1.3-1.1
			c0.5,0,0.9,0.4,1,0.8c0.5,1.2-0.5,2.4-0.8,3.6c-1.4,3.6-5.1,5-7.4,7.8c0,0.8,2.1,2.4,2.4,2.8c3.6,4.5-2.3,6-0.6,8.4
			c7.8,1.6,16.2,11.1,9.8,18.5c-2.9,2.2-1.7,10.2-6.5,8.9l0,0c-2.7-2.8,3.4-5.8,1.5-8.9c-1-1.6-3.5-0.6-4.8-2.1
			c-1.7-1.4,0.3-3.1,2-2.3c1.8,0.2,3,2,4.9,1.9c0,0,0-0.1,0-0.1c2.5-0.4,3-4.7,2-6.6c0-0.1,0.1-0.1,0.1-0.2c-2-3.1-5.4-5.3-8.6-7.4
			c-2-1.4-4.6-4.3-6.6-1.3c-3.6,0.8-2.7,4.1-2.6,6.8c-0.3,3-0.9,6-0.3,9c0.3,1.9,0.1,3.8-0.5,5.6c-0.5,0.1-1,1.7-1.2,2.4
			c-1.6,0.4-0.6,3.3-2.4,3.6c-1.1,4.2,2.4,10,7,9.9c7.9,4.8,20.9,6.1,23.4-5.2c-0.2-0.6,0-1.2,0.5-1.6c2.7-6.6-0.9-14.3,1.6-20.5
			c0.1-0.3,0.3-0.7,0.4-1l0.5-0.1c19.1-10.4-5.6-31-6.9-12c0.1,2.6,4.5,3,4.9,0.5c3.7-4.7,4.4,5.1-1.6,3.9c-1.7-0.3-4.1-0.1-5-1.8
			c-3.7-3.2-0.2-8,2.3-11c3.5-1,4.7-4.9,7.5-6.9c2-1.4,4.9-1.6,6.2-3.8c3.3-0.6,6.6-0.2,8.5,2.8l0,0c4.2,0.3,11,2.4,12.1-3.3
			c1-2.5,1.1-9.8-3.1-6.5c-8-0.8-7.1-18-3.4-22.5c0-0.1,0.1-0.2,0.1-0.3c4.3,0.9,0.5,6.4,0.1,8.9c-1.3,5.1,1.8,17.4,6.8,7.7
			l-0.1-0.1c0.8-18.7-7.2-41-23.7-51c-2.1-1.4-4.4-2.4-6.8-3.1c-1-1-2.7-1-3.7,0c0,0-0.1,0.1-0.1,0.1v0.1
			C429.1,48.7,427.7,51.6,424.4,52.8z"/>
		<path class="st0" d="M413.1,79.8c-5.8,0.3-4.8,8.8-0.8,10.7c5.2,2.8,9.2-4.9,7.2-9.3l0,0c-1.4-3.5-4.3-12.7,2.1-11.9
			c0.7-0.3,1.5-0.2,2.2-0.4c3.5-1.9,8,2.6,9.3,5.9l-0.4,0.1c1.9,3-0.1,7.2,2.1,10.1c3.3,3,9.9,4.7,13.1,0.8c1.1-3,2.7-6.8,0.4-9.7
			c-2.1-1.3-3.7-3.5-6.1-2.9c0,0,0-0.1,0-0.1c-1.2,0-2.4-0.1-3.5-0.5c-1.7,0-6.4-2.5-3.5-4.3c2.6-0.5,4.5,3.1,7.4,1.8
			c2.2-0.4,2.7-4.3,2.1-6.4c-2.4-3.4-6.9-1.2-10.1-3.1c0-0.1,0-0.1,0-0.2c-5.8-6.7-6.3,0.2-12,1.2c-1.3,0-3.6-0.7-5.1-0.1v0
			c-5.3,0.5-4.9,8.2-3.4,11.9C415.6,75.6,417.8,80.1,413.1,79.8z"/>
		<path class="st0" d="M447.3,119.8c2.7-1.9,1.7-5.8-1.8-4.8c-2.9,0.3-8.9,3.1-9.4,6.1c0,1.8,1.9,2.7,3.4,2.3c4.1,1.7,4.3,8,8.7,9
			c6,0,10.2-3.5,12.1-9.3c0.8-1.4,0.9-4.2-0.2-5.4c-1.9-0.2-3.8,0.7-5.8,0.3c-2.7,0.4-4.1,0.1-4.6,3.5c-0.4,1.2,1.1,2.4,0,3.5
			C446.8,126.8,446.1,121.6,447.3,119.8z"/>
		<path class="st0" d="M463.9,165.7c-0.9-0.4-1.8-0.6-2.6-1l0,0c-1-0.3-2,0.3-2.2,1.3c-0.1,0.2-0.1,0.4-0.1,0.6
			c0.4,1.2,1.6,1.7,2.1,2.8c1.1,3.4-4,3.9-5,1.1c-1.5,0.7-4.1,1.6-4.2-1c0.4-2.3,3.6-3.1,5.3-4.1c-0.1-3.4-6-1.6-8.2-3.4
			c-7.9-3.8-0.5-12.7,1.6-17.7c1-3.3,6.7-7.7,3.3-10.7c-4.3,1.5-7.6-0.2-8.8,5.3c-0.1,4.1-7.4,4.1-7,10.7c0,0.1,0,0.1,0.1,0.2
			c-0.6,1.3-1,2.8-1.2,4.3c-0.1-0.6-0.3-1.2-0.5-1.7c0.4,4.3,0.5,8.7-0.8,12.9c1.3,2.5,4.8,2.1,6.4,4.5c1.3,2.2-0.1,4.5,0.1,6.8
			c0.2,3,3.5,2.2,5.2,3.7c9.1-6.6,14.5,1.4,21.4-5.9c1.6-2,4.6-7.4,0.4-7.9C467.3,166.1,465.6,165.9,463.9,165.7z"/>
		<path class="st0" d="M304.9,270c2.8-0.9,5.6,0.5,8.3,0.3c3.9,2.5,6.4-1.5,10-2.6c1.3-0.5,4.2-0.8,4.2-2.5c-0.4-2.8-2.5-6-1.2-8.8
			c1.6-6.6,4-13.1,1.2-19.8c-1.5-3.6-2-8.8-6-10.5c-2.2-0.9-8.5,2-7.9-2.1c1.4-2.5,3.9-0.6,5.7-0.2c1.4-0.1,3.9-0.7,3.2-2.6
			c-1.4-4.3-1.4-9.3-4-13.1c-0.5-2-3.1-5.2-5.1-2.8c-2.3,4.3-7.3,6.9-8,12c-1.1,3.5-0.2,6.6-0.2,10.1c-0.5,0.8-1.3,0.4-2,0.2
			c0,0,0-0.1,0-0.2c-3-2.8,0.9-8.8-2.4-11.3c-13.4-0.5-3.1,14.6-5,21.9c-1.7,2-3.7,6.3-1.6,8.6c3,0.6,3.6-3,5.8-3.8
			c4.9-3.2,8.5,3.2,8.4,7.6c-0.2,2.8-0.5,6.4,3.6,4.8v0.1c7-4.8,0.3-14-1.4-19.8c3-9.2,9.8,17.4,6,19.9c-2.7,4.6-6.6,2-10.8,2.2
			c-4.1,1.6-1.5,5.9-2.8,9v0C302.4,267.9,302.8,270.3,304.9,270z"/>
		<path class="st0" d="M286.7,183.7c-2.7,6.4-2.7,13.3-2.4,20.1c0.7,3-2.6,4.3-3.1,6.9c4.6,8.5-7.2,6.1-2.5,13.1
			c11.3-0.5,6.6,8.7,6.9,15.7c0.5,0.5,1,0.8,1.7,1l0,0c9.7,2,4-11.8,3.6-16.7c-1.2-4.7,1.7-9.5,6.4-10.6c1.8-0.4,3.7-0.3,5.5,0.4
			c1.2,0,1.4-1.1,1.3-2.2c-1.6-5.5-8-10.8-5.1-16.8c5.3,1.1,2.2,9.1,5.6,12.2c1.6,7.9,6.1-2.7,7.9-5.1c0.8-3.2,4.5-6.7,7.8-6.7
			c1.8-0.2,4.7-0.7,6,0.7c4.4-2.4,9-2.9,11.8,2.4c11.5,5,8.4-12.5-1.3-14c-7.8-0.5-15.4,4.7-23.5,2.1c-1.9-0.4-5.1-4.1-2.2-5
			c2.3,0.7,4.4,2.5,7.3,2.5c3.7,1.2,7.6-0.4,11-1.5c4.4-0.4,6.8-4.6,4.6-8.4c-6.9-9.3-20.7,8.7-27.1-2.5c-1.3-2.4-4.2-2.8-6.7-2.8
			C293.1,170.5,288.8,176.9,286.7,183.7z"/>
		<path class="st0" d="M345.9,167.2c10.2,6.7,12.1-13.4,4.3-8.5c-2.6-0.1-5,1.6-5.7,4.1c0.2,0.4,0.1,0.9-0.1,1.3
			C344.5,165.4,345,166.5,345.9,167.2z"/>
		<path class="st0" d="M311.7,172.7c7.9,1.6,15.9-8,23.4-1.6c5,2.9-1,11.5,4.6,12.8c1.9,0.1,2.8,1.5,4.3,2.4l0,0
			c3.6,4,7.3-1.4,11.3-0.7c8.6,0,5.3,7.8,10.7,10.6c3.9,1.6,9.1,3.6,13.4,2.1c3-1.7,0.9-5.3-2.2-5.1c-3.2-1.3-6.7-2.6-9.1-5.2
			c-5.4-9.4-11.1-6-19-10c-2.3-1.4,0.4-6.3-2.9-7.1c-1.4-0.5-2.5-1.5-3.1-2.8c-3.5-5.8,1.9-5.8-6.6-6.2c-6.8,2.6-26-0.5-27,8.6
			c-0.1,0-0.3,0-0.4,0C309.6,171.5,310.5,172.3,311.7,172.7z"/>
		<path class="st0" d="M384.4,478.2L384.4,478.2c-3,7.4,9,1.5,12.4,2c10.9-2.1,22-1.4,33-1.9c5.5-2.1,12.2,2,17.6-0.6
			c2.3-4.3,4.3-13.3-2.2-14.6c-0.5,0.6-1.5,0.4-2.1,0c-7.7,1.4-13.1,10.3-21.7,7.3c-2.7-0.6-5.5-2.3-8.3-1.6
			c-1.5,1.1-1.6,2.7-1.6,4.4c-3,8-7.1-2.7-2-5.6c5.9-8.5,12.4,7.1,28.2-5.9c0.3-0.5,0.8-0.4,1-1c9.2-9.9-2.9-14.7-9.2-5.2l1.1-0.3
			c-2.1,2.5-5.3,3.2-8.2,3.9c-0.1,0-0.2,0-0.3,0c-7.1,1-9.6-6.3-15-6.6c-3.6,1.9-7.7,3.1-11.7,1.8c-20.1-10.8-10.2,8.5-23.2,9.3
			c-3.7,1-22.8-3.9-16.6,4.5C363.6,473.9,386.9,460.5,384.4,478.2z"/>
		<path class="st0" d="M443.7,459.9c2.9,0.1,5.5,1.1,7,3.1c1.6,0.4,3.2-0.3,4.2-1.6c1.8-8,9.5-11.2,17-9.4c2,0.5,4.1,1.2,6.2,0.4
			s3.5-2.3,5.4-3.1c2-1.3,10.6-0.8,7.1-4.6c-2.6-1.6-4.1-4.9-7.3-5.9l0,0c-4.8-3.9-9.4-7.6-14.1-11.5c0,0-0.1,0-0.1,0
			c-2.9-1.8-6.7-3.8-10.2-3c-1.6-0.1-3.5,1.5-4,3c2.5,4.1,0.6,4.7-1.7,8c-1.8,6.1,6.5,6,10.4,5.2c2.9-0.9,7.8-2.4,9.6,1
			c0.4,5.2-9.8,1-13.1,2.2c-4.4,0.5-9.6-0.5-11.6-4.8c0-0.1,0.1-0.1,0.1-0.2c-0.5-2.1,0.5-3.6,1.9-4.9c0.2-0.3,0.5-0.6,0.8-0.8
			c0-0.1,0.1-0.3,0.1-0.4c0.6-0.9,1-1.9,1.1-3c-0.3-0.8-0.6-1.5-0.8-2.3c0.4-0.7,0.3-1.7,1.1-2.1c2.5-1.2,1.7-5.3-1.1-5.4
			c-2.5-4.3-14.2-4.2-8.7,2.3c-0.1,2.9-0.6,5.8-1.4,8.6c-1,5.8-7.2,10.9-13.2,11.4c-6.5,0.9-20.3-7-18.4,5.5
			c2,10.5,16.7,10.9,21.6,2.2c5.1-4.4,15.3-0.5,12.7,6.8C444.4,457.4,443.4,458.5,443.7,459.9z"/>
		<path class="st0" d="M527.6,495c-3.3-6.4-5.7-13.5-9.9-19.3c-0.4-1.6-1.6-2.8-3.2-3.3c-7.5,1.7-11.9,9.8-20.3,6.9
			c-6.3-0.8-6.5,5.9-7.3,10.4c-2.1,2.3-1,5.6-2,8.4c-0.3,0.7-0.2,1.6,0.2,2.2c-1.2,3,2.2,5.9,5.1,4.5l0.1,0.1
			c4.5-2.1,4.8-8.2,2.8-12.2c-0.6-8.9,5.8-10.2,4.4-3.6c-0.7,2-1.2,4.1-1.5,6.2c0.3,0.7,0.2,1.5-0.3,2.1c0.3,4.4,4.2,5.6,7.9,5.8
			c0,0,0-0.1,0-0.2c2.1,0.1,3.9-1.5,3.9-3.6c0-0.4,0-0.7-0.1-1c-0.4-0.7-0.7-1.5-0.7-2.3c-2.1-2,0-14.8,3.8-14.8l0,0
			c3.2,0.7,1,4.7-0.9,6.3c-3,13.9,2.8,10.5,12.2,14.7c2.7,1.9,3.4,7.6-0.2,8.9c-2.3,0.8-4.5-1-6.7-0.4h-0.1c-0.4,0.1-0.7,0.3-1,0.5
			c0,0,0,0,0,0.1c-2.4,1.6-3.3,5.9,0,7c5.5,1.2,7.7-3,13,1.2C534.3,519.3,530.4,499,527.6,495z"/>
		<path class="st0" d="M339.9,212.8c-0.3,7.2,5.5,20.4,14.3,14.9c4.4-4.6,15.1-6.6,18.2,0c3,3.6,1.7,8.4,1.5,12.6
			c13.4,15.7,15.8-15.4,8.7-22.6c-5.7-6.9-16.1-4.6-24.1-4.3c-0.6,1.4-2.9,2.2-3.5,0.5c4.1-10.7,20-0.4,28-4.6
			c0.9-1.7,2.2-3.8,1.7-5.8c-1.3-1.6-2.7-5.3-5.2-3.1c-6.5,1.4-17,0.1-19.8-6.6c0.3-5-5.1-7.4-9.1-4.8c-4,3.1-0.8,10.2-6.4,12.2
			C337.9,200.4,340.9,209.1,339.9,212.8z"/>
		<path class="st0" d="M292.7,307.7c-0.5,1.3,0.1,3.1,1.6,3.1c0,0.1,0.1,0.1,0.1,0.2c1.2,0.6,2.8,0.6,3.8,1.4
			c9.9,3.6,6.6-14.5,22-8.6c0.1-0.1,0.2-0.2,0.2-0.3c-0.3-4.2,0.8-8.8,4.9-10.6c1.8-3.7-4.6-10.1,0.6-11.8
			c5.3,10.6,1.3,10.5,15.4,11.2c1.6-0.4,3.1-0.9,4-2.4c4.2-5.5,11.8-4.2,17.9-5.7c9.2,0.8,10.6-2.2,17-7.8c0.2,0,0.5,0,0.8,0
			c2-2.1,5.4-2.7,8-3.4c0.3-7.4,6.5-13.8,5.1-21.3c-1.8-7.3-10-8.7-13-1.5c0.1,0.7,0.5,1.7,0,2.2c-0.2,4.3-0.6,19.4-6.9,17.8
			c-1.3-2.5,1.8-3.9,2.7-5.9c0-4.6,1.6-9,1.5-13.7c-2.3-5.1-10.1-11.1-15.3-7.1c0,0.1,0.1,0.2,0.1,0.3c-1.7,2.7,0.9,5.8,0.5,8.8
			c0.3,6.6,3.8,15.1-0.4,20.9c-3.3,3.2-6.7,1.6-8.8-1.4c-5.5-6.3-1-13.7,1.2-7.4c-0.9,3.8,2.7,11.2,6,5.4c0.6-9.2-1-19.5-3.3-28.4
			c-1.7-2.5-4.9-2.4-7.1-4.2c-6.2-5.6-13.5-12.8-13.4-21.6c3.2-25.8-12.5-21.6-9-13.7v0.2c0.2,0.5,1,1,0.9,1.6
			c2.4,3.8,2.6,8.2,2.6,12.8c0.3,1.7,3,5,0.5,6c0,0.2,0.1,0.4,0.1,0.7l0,0c-0.1-0.2-0.2-0.4-0.3-0.6c-4.7-4-1-13.9-5.8-18.9
			c0,0,0-0.1,0-0.2l-0.4-0.6c0.1-2.3-1.7-6.8-4.6-5.2c-0.5-0.1-1-0.1-1.4,0c0,0-0.1,0-0.1,0.1c-4.2-0.3-3.8,5.5-0.9,6.9
			c3.9,5.8,5.2,12.9,6.2,19.6c15,29.9-9,29.1,15.2,51.5c0.9,7.1,6.7,5.3,5.2-1.4c-0.9-0.4-1-1.6-1.2-2.5c-0.8-1.9-2.5-3.1-2.9-5.2
			c0.5-2.7,3.8-1,4.1,1c6.8,7,1.1,23.4-7.2,11.9l0,0c-0.6-3.7-4-4.7-6-7.4c-0.9-1.2-1.9-3.1-3.2-4c-6.2-0.3-11.6,4.3-12.3,10.4
			c-5.3-15.6-26.6-2.3-17.1,8.8c3.9,1.6,9.5,1.8,11.9,5.5c0.5,1.2,0.2,2.6-1.3,2.7c-3.5-0.6-6.4-4.5-10.3-3.7
			C294.6,294.4,293.3,302.4,292.7,307.7z M348.2,260.3c-4.2,1.7-10.5,1.7-12.3-3.3c-1.8-11,10.2-18.5,16.4-8c0.6,2.9,1.4,6,1.3,8.9
			c0.1,0.1,0.1,0.2,0.2,0.3C351.8,258.3,350.3,260.1,348.2,260.3L348.2,260.3z"/>
		<path class="st0" d="M365.5,226.9c-5-0.6-8.5,3.9-13.2,4.8c-0.7,0.9-0.6,2.1,0.1,2.9l0,0c3,2.6,6.6,4.3,10.5,5
			c0.3-0.1,0.6-0.3,1-0.4c1.9-0.1,5.8,1.1,6.6-1.4c0.4-0.3,0.8-0.9,1.3-1.2C372.9,232.2,370.1,227.2,365.5,226.9z"/>
		<path class="st0" d="M511.5,323.8c-0.5,0.4-0.9,0.8-1.1,1.4C510.8,324.8,511.2,324.3,511.5,323.8z"/>
		<path class="st0" d="M549.7,253.8c-2.1-0.6-4.3-0.8-6.5-0.5l0,0c-2.9,0.1-5.6,0.4-8,2.1c-1.8,2-7.3,4.4-7-0.2
			c-2.8,0.9-5.3,0.4-8,0.8c0.2,6.6,8.1,8.3,13.5,8.2c7.1-4.4,12.8,2.7,14.7,9.2c-0.5,2.8,3.2,5,5.2,6.3c4-5.8,0.2-15,0.7-21.8
			C554.8,255.3,551.9,254.2,549.7,253.8z"/>
		<path class="st0" d="M530.6,253.6c3.2-0.5,5.8-2.2,9-2.6c-3.6-5.3-1.2-12.1-3-17.7c-0.5-1.3-2.8-3.4-3.8-1.3
			c-0.5,4.3,3.6,12.4-3.3,13.8l-0.1,0.2l-0.2-0.2c-0.4,0-1.2-0.1-1.3,0.2C529.4,248,532.3,250.8,530.6,253.6z"/>
		<path class="st0" d="M542.1,249.9c6.3,1.7,2.8-8.6,2.6-11.9c0.4-13.1-7-15.8-18.2-11.2c-0.6,0.5-1.1,1.2-1.4,2
			c0.3,2.6-2.2,4.5-3,6.7c0.2,1.7,2,2,3.4,2.2c2.1,0.2,3.2,2.1,4.9,3l0,0c1.4-3.3-2.7-8.7,1.3-11.4c2.4-1.6,5.4-0.2,6.7,2.1
			C541.7,236.8,538.2,244.6,542.1,249.9z"/>
		<path class="st0" d="M535.9,211.9c-3.5-0.8-4.7-7.4-1.8-9.4c-0.2-2.3-2.7-10.6-6.2-8.6c-2.7,1.8,0.4,4.9,1,7.1
			c-1.3,5.4,4.5,14-2,16.3l0,0c-7.2-0.3-4.3,4.2-7.8,4.3c-8.3,2.6,3.3,8,7.7,2.2c10.7-3.6,20.4-1.6,20.3,11.5c0.1,5.1,3,11,0,15.6
			c12.6,3.6,0.9-39.5-1.1-45.8C541.5,203.2,544.7,214.2,535.9,211.9z"/>
		<path class="st0" d="M515.4,220.8c1.2-0.6,2.6-1,3.9-1.3h0.1c2.1-3.7-3-5.8-5-7c-3-0.7-5.9-2.1-8.3-4.1c-0.3-1.4-2.2-2.1-3-3.2
			c0.5-0.8-0.4-1.5-0.5-2.3c0,0.2-0.1-0.4-0.1-0.4c-1.8-3.4-5.7-1.4-8.2-4c-2.1-0.6-1.2-4-3.3-4.6c-2.4-0.7-9.7,1.9-8,5
			c3.4,2.5,8,3.5,10.7,6.9l0,0c0.6,0.7,1.1,1.3,1.5,2.1c0,0,0,0.1,0,0.2c2.8,3.3,0.7,7.7,1.6,11.5c1.2,4.2,7.6,6.5,4.8,11.4v-0.1
			c-0.6,0.9-1.3,1.7-2,2.5c0.1,0.8,0.7,1.4,1.4,1.6c4.4,1.6,8,5.3,7.7,10.1c4,1.7-1.8,8.9,8.3,8.5v-0.1c0.7-0.1,1.3-0.1,2-0.1
			l0.1,0.1c20.4-0.2,1-5.3,7.2-9.9c0.2-0.1,0.4-0.2,0.6-0.3c1.6-3.2-3.1-4.6-5.5-4.5c-0.3-0.3-0.6-0.6-0.8-0.9
			c-2.9-2.4,1.3-5.5,1.5-8c-0.1-2.5-3.6-2.1-5.3-2.8c-1.9-0.1-3.3-1.7-3.2-3.6C513.6,222.4,514.3,221.3,515.4,220.8z M516.3,249.7
			c0,0.1-0.1,0.1-0.1,0.2l-0.8,0.1c-0.1-0.1-0.2-0.1-0.3-0.2L516.3,249.7z"/>
		<path class="st0" d="M461.9,196.4c-8.1,3.2-1.9,16.7,4.1,14.1c3.8-1.1,7.4-3.6,11.5-2.2c2.3,2.1,2.3,5.4,1.7,8.2
			c1.5,3.7,5.1,1.7,4,8.9c-1.8,5.9,5.3,8.5,9.9,8.9c3,0.1,5.2-3.6,6.9-5.8c-10.8-11.4-2.7-10.7-8.3-21.4c-1.5-1.7-3.5-2.9-5.6-3.6
			c-14.6-3.1,0.6-17.3,8.1-10.5c1.9,5.7,3.6,4.7,9,4.6c3.8-2.9,12.5-1,12.2,4.5c-0.2,0.1-0.4,0.2-0.5,0.3c-2.5,0.3-3.5-3.5-5.7-3.5
			c-11.5-0.9,2.5,12.4,8.6,11.4c7.1-4.3,0.1-17.1-6.2-19.3c-2-1.6-3.7-3.7-4.8-6c-3.9-3.8-10.3-2.9-15.1-4.4
			c-17.3-4.8-13.4,6.5-25.4,7.9C462.2,189.7,465.9,196,461.9,196.4z M482.5,216.3c0.1,0.1,0.1,0.3,0.2,0.4c-0.2-0.1-0.4-0.2-0.6-0.3
			C482.2,216.3,482.4,216.3,482.5,216.3L482.5,216.3z"/>
		<path class="st0" d="M549.1,340.5c-2.5-2.5-7.5,3.8-12,3.9c-6.2,3.3-12.3-1.3-18.1-3.1c-3.1-0.8-6.5,4.3-6.5,7
			c-0.8,3.6,2.1,7.3,3.6,10.6c0.7,2,1.5,6.4,4.4,3.6c0-0.1-0.1-0.1-0.1-0.2c2.9-6.9,9.1-10.9,15.8-13.4
			C541.2,348.7,552.5,348,549.1,340.5z"/>
		<path class="st0" d="M553.3,351.8c-0.8-5.3-6.6-2.1-9.3-0.4c-2.5,2.6,0.6,7.9,4,6.3C551.5,358.4,554.2,355.4,553.3,351.8z"/>
		<path class="st0" d="M552.2,282.7c-0.8-0.4-1.7-0.8-2.5-1.3c0-0.1,0-0.3,0-0.4c-6-3.2-4.9-12.8-11.5-14.7
			c-1.5,0.4-4.1,1.1-5.5,0.5c-6.4-0.5-14.3-3.5-15.7-10.5c-4.8,0.6-9.5-2.4-9.5-7.3c-0.4-0.3-0.9-0.5-1.3-0.9c0-0.5-0.2-1-0.5-1.4
			c0.7-6.3-5.5-10.5-11.3-9.4c0,0,0-0.1-0.1-0.2c-1.8-0.1-5.7,1.6-6.4-0.9c-5.7-0.6-9-5.5-8.2-11c0.1,0,0.2-0.1,0.3-0.2
			c2.7-6.5-7.7-4.1-8.5-0.1c-0.9,7-0.5,14.3-3.5,20.8c-1.9,4-6.3,6.5-7.2,10.9c0.7,4.2,3.5,5.5,7,3.5c7.8-3.1,5.2-19.6,16.4-13
			c1.6,0,2.3,1.7,3.3,2.8c0.9,1.5,0.6,3.8,2.6,4.8c6.4,3.6,4.8,12.7,4.9,19c1.3,2.1,4.8,2,7,1.9c4.9-0.2,2.6-5.6,2-8.6
			c1.4-5.5,8.9-3.2,12.4-1.4c4.6,2.6,7.3,8,9.7,12.5c0.3,1.6-1.7,3.9-3.3,2.5c-1.2-1.4-0.6-3.5-1.2-5.1c-1.7-2.3-3-5.2-5.4-6.9
			c-2.6-2-10.4-5-9,1c4.2,7.5-5.1,9.8-10.7,8.7c-0.6,0.2-1.1,0.6-1.4,1.1c0.2,3.4,0.5,6.7,1.1,10c-2.1,2.2-0.9,6.2,0.4,8.7
			c-0.9,2.4-0.3,9.5,3.4,6c1.7-3.4,5-4.6,8.4-4.5c-3.5-4.3-9.1-15.4-0.6-17.3l0.2-0.2c0.6,0.3,1.2,0.4,1.8,0.5l0,0
			c7,2.5,11.4,9.5,12.5,16.6c0.7,2.5,5.9,6.5,5.8,1.6c-0.6-1.2-0.3-2.4-0.5-3.6c0.2-1.5,1.5-2.6,3-2.8c1.8,0.1,1.3,2.1,0.7,3.2
			c-0.8,2.2-0.6,4.7,0.6,6.7c1.5,1.1,5.3,1,7.1-0.6c0.2-0.4,0.6-0.6,1-0.6c3.3-3.4,1.2-10.1-3.9-9.9c-10.8-5.3-7.1-19.8,5.2-13.9
			c4,3.3,6.1,7.8,10.5,10.6c4.1,7.7,2,18.1-2.8,25.1c5.6,2.5,2.7,11.7-3.1,12.1c-1.5,1.9-3.9,3.1-4.3,5.7c-0.2,1.9-3.3,5.8-4.3,2.5
			c0.7-2.4,1.5-5.1,3-7.1c2-3.8,7.3-2.8,8.8-6.6c1-8-3.6-1.9-7-1.3l-0.2,0.2c-3,0.5-4.3,3.2-6.6,4.7c-1-0.1-2,0.6-2.1,1.6
			c0,0,0,0,0,0.1l0.1,0c0,0.6,0.2,1.2,0.7,1.6c0.8,3.1,0.5,6.4-2,8.6c-1,1.3-3.2,0-2.2-1.3c1.7-1.6,3.5-5.9,0.3-6.7
			c-4.7-0.1-11.7,6-7.2,10.5c6.4,5,14.2,2,20-2c6-3.4,11,1.7,9.2,7.9c0.8,0.1,1.5,0.3,2.2,0.7c3.1,6.6,6.6,1.5,4.3-3.4
			c-0.4-1.7-1.7-3.6-1.1-5.3c0.3-0.8-0.1-1.6-0.8-2c-1.8-16.1,3.1-33.1-0.7-48.9C555.4,284.9,554,283.5,552.2,282.7z"/>
		<path class="st0" d="M497.2,330.3c-1.2,3.5,2.6,8.3,4.1,2.9c8.7-7.9,8.6-5,4.6-16.6c1.8-1.7,1.3-8.9,5.3-4.7c0,0.2,0,0.4,0,0.6
			c-1.9,2.8-3.3,10.6,1.9,10.3c0.4,1-0.5,1.8-0.7,2.8c-4,4.9-9.7,8.2-12.7,14c-2.8,1.4-2.1,6-1.6,8.2c-0.7,2.7,1.8,5.9,2.1,8.8
			c2.1,6.5,0.3,14.1,2.2,20.8c-1.1,3.7,2.4,12.2,6.6,7.3c3-1.4,5.3-4.4,7.5-6.8c1.3-4.5,2.8-10.8-1.7-14.1
			c-4.3-9.8-10.7-18.6,1.6-25.5c3.5-4.4,5.3-11.5,11.8-11.8l0.2,0.1c5,0.1,6.1-6.1,9.9-8.4c11.2-4,14.6-13.9,12.2-25
			c-3.4-2.3-5.6-5.5-8.1-8.8c-3.5-7.7-14.7-2.5-8.3,4.5c1.7,2.3,4.8,2,6.8,3.4c2.1,1.6,3.8,4.2,3.6,6.7c0.2,4.7-3.5,8.6-8.2,8.8
			c-0.1,0-0.1,0-0.2,0c-22.5,0.5-11.9-14-25.2-21.9c-2.7-2.3-5.2,1.2-4,4.1c2,6.9,8.7,10.4,12.2,16.2c-0.5,0.4-1.2,0.5-1.8,0.4
			c-11.9-13.1-20.8,0.6-19.8,13.7c-0.2,0.3-0.2,0.7-0.2,1c-1,1.5,0,3.5-0.2,5.2l-0.1-0.1C497.4,327.7,496.8,329.1,497.2,330.3z"/>
		<path class="st0" d="M544.4,383.8c0.6,0.8,1.7,1.2,2.7,0.9c4.6-1.7,2.7-13.2,2.9-17.5c-0.5-0.2-0.6-1-0.6-1.6
			c1.1-5.1-5.6-5.2-7.8-8.5c-3.8-14.6-20.8,4.8-20.5,13.3c-0.8,3.8,0,8.4-3.9,10.6c-2.8,2.5-5,6-8.9,6.8c-1.5,0.3-2.9,0.5-3.7,2
			c1.2,17.3,9.6,7.6,16.2-0.1c2.7-3.4,7.3-6.2,6.6-11.1c0.3-0.5,0.3-1.1,0.1-1.6c2.8-14.3,4,7.9-0.1,10.2c-1.8,1.9-4.4,4.2-6.4,6.3
			c-6.2,3.2-1.5,8.2,3.5,8.4c9-2.1,12.3-15.4,11.7-23.6c-1.7-5.8,2.8-14.7,8.2-7.8l0.3,0.1c0.1,3.7-0.5,7.4-0.1,11
			C544.1,382.3,544.1,383.2,544.4,383.8z M525.2,396.2c-0.2-0.4-0.2-0.8-0.1-1.1l0.1,0.1C525.1,395.5,525.1,395.9,525.2,396.2z"/>
		<path class="st0" d="M386,210c0,0-0.1,0.1-0.1,0.1c-2.1,3-1,6.2,0.9,8.9c0.8,12.3,7.9-0.8,15.9,1.7c8.1,0.2,11.8,7.2,16.6,12.5
			c1.9,7.2-1.4,5.6-4.3,0.9c-3.6-11.4-17.3-14.5-25.1-5.4c-1.7,3.4-0.3,7.4-0.9,11c-0.8,4.3,7.3,5.3,7,9.8c0.5,1.3,0.8,2.7,0.8,4.1
			c0-0.4,0.1-0.8,0.1-1.2c1.4,7.3-6,13.6-3.8,20.5c0,0,0,0,0.1,0.1c4.8,0,14.6,9.3,16.8,1.2c0.1,0,0.2,0,0.3-0.1
			c-0.1,0-0.1-0.1-0.2-0.1c0.3-3.7-5.5-6-2.4-10c2.9-4.5,8.9-5.2,13.8-4.5l0.2,0.2c1.5,0.1,1.5,2.1,1.5,3.5c0-0.1-0.1-0.3-0.2-0.4
			c-1.1,2.7-4,0-5.9-0.3c-2.8-0.2-5.5,0.9-7.2,3c-1.1,2.8,2.8,4.6,3.5,7.2c2,0.9,4.3,1.5,5.6,2.3c0.8,0.5,1.9,0.5,2.7,0.1
			c0.9-11.7,17.4-9.9,14.2-25.1c-0.5-5.2,0.6-11.2,5.5-14c2.4-1.9-0.4-3-1.5-4.6c-2-2.4-0.7-5.9-2.2-8.4c-0.2-4.2-3.3-6.9-6.8-8.9
			c-9.9-2.6,1.9-12.4-10.5-14.1c0.1,0.2,0.3,0.4,0.5,0.5c-1.8-0.5-3.5-1.2-5.2-1.9c-2.3-3.5-0.8-7.2,0.1-10.9
			c3.3-4.3,10.6-3.2,14.4-0.2c7.3,5.7,25.6-1.6,9.7-6.4c-0.9-1.6-1.4-3.4-1.3-5.2c0.1-2,1.5-4.3-1-5.2c-1-0.3-2.1,0-2.6,0.9h-0.1
			c-0.7,1.5-2.1,2.4-3.1,3.8c-12.8,10.1-22.4-5.5-35.4-1.9c-4.9,0.9-10.3-2.1-14.8,0.2c-1.1,0.9-1.3,2.6-0.4,3.7
			c0.3,0.4,0.7,0.7,1.2,0.8c7.3,5.5,18.8-4.2,24.5,5.3c1.5,12.7-12.2,11.2-20.1,14.3c1,3.2,2.2,6.8,0.6,10c0,0.5,0.1,0.9,0.1,1.4
			C386.8,209.4,386.4,209.7,386,210z M419.6,267.4c0.4-0.3,0.8-0.6,1.3-0.8C420.5,266.8,420.1,267.1,419.6,267.4L419.6,267.4z
			 M403.8,208.5c0.5-0.8,0.7-1.9,0.5-2.8c8.4,0.6,16.2,6.2,22.8,11.3c6.4,6.3,5.5,17.1,2,24.8c-4.7,5.4-1,11.2-9.8,12.3
			c-6.1-0.2-9.1-1.4-10.4-8c0,0,0.1,0,0.1-0.1c-1-4.2-3.2-8.1-6.4-11.1c-1.3-0.7-3.3-0.9-4.1-2.3s1-2.5,2.4-2c0,0,0.1-0.1,0.2-0.1
			c2.8,1.3,4.3,4.5,6.5,6.3c2.2,3.1,3.4,7.2,4.4,10.8c6.3,6.5,10.9,2.4,12.9-4.8c2.6-3.3,4.3-7.1,3.4-11.3
			c2.3-12.9-12.7-20.8-24.8-22.5C403.7,208.7,403.8,208.6,403.8,208.5L403.8,208.5z"/>
		<path class="st0" d="M470.4,175.8c-0.1,0.1-0.2,0.2-0.3,0.3c0.1-0.2,0.2-0.4,0.3-0.6c-7.3,10.5-20.2-1.8-21.3,11.2
			c0,1.7-1,4.6-3.1,4.2c-6.1,4.2-13.4,1.2-19.7-0.8c-2.2-2.6-6-2.3-8.3,0c0,0.2,0,0.5-0.1,0.7c-2,1.8-1.3,4.1,0.3,5.6
			c5,0.2,9.1,6.3,13.5,6.1l0,0c4.1-1.3,8.1,0.4,11.2,2.9c0,0,0.1,0.1,0.1,0.1c0.2,0.1,0.4,0.3,0.5,0.6c3.8,3.5,7.2,17.6,11.1,17.7
			c0.5,0.2,1.2,0.3,1.7,0.1c1.7,0.3,3.5,0.5,4-1.4c-0.2-3.5,3.5-7.6,0.5-10.6h-0.1c-6-2.2-8.6-10.3-3.9-15.1
			c3.1-2.7,4.1-2.9,4.4-7.3c1.5-4.8,7.8-2.8,10.5-6c1.3-1.8,1.8-3.7,3.9-4.9c9.8-5.1,21.4,1.1,31.5,3.3c4.3,1.7,1.8,8,6.4,9.1
			c3,0.8,3.2-3.6,5.3-4.9c1.8-2.4,4.4,0.1,2.5,2.3c-0.8,1-2,1.6-2.7,2.6c-1.9,6.3,8.3,9.9,4,17.7c-4.8,0.6-3.4,8.1,1.3,7.1
			c6.2,0.2,3.3-7,2.8-10.5c0.2-6.6-8.1-12,3-13.6c3-0.4,4.1,3.4,5.5,5.4c1,1.9,3.7,4.4,1.3,6.4c-2.9,1.6-2.3,5.9,0.8,6.1
			c1.4-0.3,2.6-1.3,3.2-2.6c4.4-5,0.9-10.2-2.8-14.3c-4.7-8.8-15.2-15-24.6-17c-11.8-2.8-23.4-4.7-35.2-6.9c-1.2-1.4-3.7,0-4.8,0.9
			C472.7,171.9,471.7,173.9,470.4,175.8z"/>
		<path class="st0" d="M385.9,286.4c4.9-2.9,10.8-3.6,16.3-2c0.4,0.2,0.9,0.3,1.3,0.4c11.3-3.5-9.6-9.3-13.2-9.1
			c-5.4-0.3-9,4.6-12.5,8c-3.9,0.9-4.3,3.7-2.6,6.9c0.2,6-3.3,12.9-9.8,13.3c-3.2,3-7.3,5.5-11.9,3.6c-2.4-2.8-2-7.5,0-10.4
			c1.6-2.3,4.8-3.1,7.4-3.4c5.2-2.4,9.7,3.6,2,2.6c0,0,0,0,0,0.1c-1.6-0.2-3.2,0-4.8,0.5l0,0c-3.3,1.2-5.7,7-1.4,8.4
			c3.6-0.4,5.9-3.7,9.3-4.9c3-0.5,4.7-2.8,5.9-5.4c2.6-7.4-5.9-8.8-11.3-7.6c-3.9,1-9.9,0.2-12.3,3.8c-2.3,1.1-2.4,3.3-2.5,5.4
			c0.9,3.9-0.2,7.9,2.2,11.8c0,0.7-0.4,1.5-1.3,1.4c-3.1-0.3-3-4.2-3.1-7c-0.1-3.4-0.3-7.1-4.4-7.7c-4.4,0.2-8.9-2.2-12.8,0.6
			c-4.9,2.7-3.3,9.4,0,12.8c0.7,0.4,1,1.3,0.6,2l0.1,0.2l-0.2-0.1c-0.5,0.6-1.4,0.8-2,0.3c-0.1-0.1-0.3-0.2-0.4-0.4
			c-1.6-1-3-2.3-4.2-3.7c-6.3-4.4-14,1.1-13.1,8.5c1.7,3.5,2.5,10.4,7.9,9.5c2.2-0.4,3.7-2.3,3.6-4.5c-0.4-2-2-3.5-2.9-5.4
			c-1.7-3.8,2.8-2.6,3.9-0.2c5.2,7.3,17.6,1.7,14.3-7.1c-0.9-2.3-3-4.1-3.2-6.6c0.2,0,0.4,0,0.6-0.1c1-2.2,3.8-0.5,3.1,1.5
			c2,6,4.8,12.7,10.8,15.6c0-0.1,0.1-0.1,0.2-0.2c0.5,0.1,1,0.1,1.5,0l0.1,0.1c5-2.6,10.5,0.2,11,5.6c-4,6.1,4.7,9.6,7.9,3.9
			c4.4-1.9,3.8-4.2,1.8-7.8c-0.9-3.3,1.2-6.2,2.3-9.2c0.4-0.9,0.6-1.9,0.6-2.8c0.3-2,3.2-2.3,3.4,0l0.3,0c-0.4,2.1-1.1,4.1-2.2,5.9
			h0c-0.8,1.4-1.2,2.9-1.2,4.5c-0.8,1.2-0.5,2.9,0.7,3.7c0.2,0.1,0.4,0.2,0.6,0.3c8.9-1,6-6.7,16.2-8.4c1.3-5-9.4-1.1-8.2-6.7
			c-0.5-6.1-1.1-10,6.1-10.5c1.8-0.4,2.9-2.4,4.8-2.6c0.9-0.2,2,0,2.9-0.2c4.4-0.4,2.3-5.6,7.8-3.8c1.6-0.6,0.9-2.6-0.4-3.1
			c-0.3-0.2-0.6-0.3-1-0.4c-13.3-5.3-15.9,9.9-18,4.2C383.5,289.3,384.5,287.7,385.9,286.4z"/>
		<path class="st0" d="M450.4,359.6c-1.7-2.1-4.1-3.4-6.8-3.9c-4.2,0.7-10.6,2.8-11.3,7.5c-2.2,4.6-3.3,9.6-3.1,14.7
			c-0.1,0.1-0.1,0.2-0.2,0.3c-0.6,4.3-1.4,8.6-1,13c0.2,0.2,0.4,0.5,0.4,0.9c0.5,1.3,2.4,1.4,3.5,2.2c5,0.1,9.6,1.2,14.6,0.6
			c2.3-1,10.3-16.2,3.7-14.7c-7.8,2.9-7.2-6,0.8-2.7c0.8-0.6,2.2-0.7,2.7-1.8c-1.5-2.3-0.9-5.4,0.5-7.7
			C453.9,364.9,452.5,361.9,450.4,359.6z"/>
		<path class="st0" d="M474.9,354.9c0.5,0.1,1.2,0.2,1.5,0.7c3.8,1,7.4-3.2,6.6-6.8c0,0,0,0,0,0c0,0,0-0.1,0-0.1
			C481,340,468,349.2,474.9,354.9z"/>
		<path class="st0" d="M119,552.9c-5.9,5.3,2.5,11.3,6.6,5.1c6.3-15.2,17.3-10.6,29.8-12.5c6.9-5.3,4.8-14.1-2.2-18
			c-4-1-6.4,4-10.1,3.8c-8.3,2.8-17.2,1.5-25.6,0c-1.8-0.6-3.5-1.1-5.3-1.5l0,0c-5.2-1.8-7-1.2-10.6,2.6c-3.9,1.4-3.8-4.3-0.9-5.6
			c4.8-1.6,9.8-1,14.7,0.1c2.9,1.2,6,2.8,9.2,1.5c11.7-4.3,2.4-18.5-7.9-17.4c-4.4-0.4-9.8,7.3-2.8,7.3c2.3-0.3,8.9-1.9,6.5,2.5
			c-22.9,6.8-13.3-20.8,5.2-12v0c0.9,0.5,1.8,1,2.7,1.6c0,0-0.1,0.1-0.1,0.2c4,3.2,6,7.6,5,12.3c0,0.1,0,0.2,0.1,0.3
			c-0.4,2.2-3.2,4.4-2.1,6.5c25.3,1.4,9-17.6,39.5-23.3c2.9-2.9,2.2-8.3,0.3-11.7c-4.5-6.9-14.8-4.2-21.9-5.1
			c-26-5.7-21.6,18.5-3.9,12.2c3-1.2,9.9-6.5,12.9-3c2.9,5.1-5.8,3.5-8.4,4.9c-8.6,5.5-22,2.7-22.6-9c-0.8-8.8,10.5-6.2,14.1-11.5
			c1.6-3.6-2.5-5.4-5.5-4.2c-3.4,1.4-6-2.2-2-3.6c2.2-0.5,4.7,0.4,6.9-0.2c2.6-1.1,0.9-4.8-0.9-5.8c-4.4,0.4-9.1,0.2-13-2.2
			c-5.1-3.1-8.7-5.8-8.4,2.6c0.3,1.3,0.5,2.7,0.6,4c-0.3,3-0.9,6.6-0.4,9.6c-0.2,5.1-1.7,10.9-5.9,14c-0.9,0.6-1.4,1.6-1.4,2.7
			c-6.5,3.4-10.3,9.5-15,14.9c-4.2,4.4-22.7,14.1-21.8,19.1c0.8,3.8,4.6,2.9,7.2,2c4-4.6,9-1.5,13.9-1.6c3.5,0.4,4.6,4.6,1.4,6.5
			c-0.1-0.1-0.2-0.1-0.3-0.2c-0.9,0.4-1.9,0.4-2.8-0.1c-1.4-0.2-2.1-2.5-3.5-3c-3.8-2.5-7,3.1-10.7,2.5c-4.8,1.8-7.7-5.6-12.5-2.7
			c-9.3,8,4.2,18,11.3,22c6.4,4.8,15.9,5.5,18.4-3.7c0.5-3.3,2.4-6.5,4.5-9.2l0,0c1-2.3,9.8-9.9,9.3-3.4c-0.7,1.5-2.5,2-3.9,2.8
			c-6,3.3-6.6,11-9.7,16.3c-12.7,7.3,11.5,13.5,17.2,13.1c5.8-1.3,11.7-4.8,5.3-10.3v-0.1c-4-1.2-5.1-3.2-6.7-6.7
			c0.1-3.4,1.5-6.6,4-9c1.2-1.6,2.2-3.8,4.3-3.8C125.7,546,120.8,551.2,119,552.9z M131.3,478.6l-0.1,0.3h-0.5
			C130.9,478.9,131.1,478.8,131.3,478.6L131.3,478.6z"/>
		<path class="st0" d="M157.4,555.5c-6.7-8-24.1-8.4-27,3.2c-2.1,2.8-7.5,5.2-4.6,9.5c10.5,2,21.3-3.7,31.6-5.2
			c0.8-0.1,1.5-0.6,1.9-1.3c1.4-0.6,2.2-2.2,1.6-3.6c-0.1-0.1-0.1-0.3-0.2-0.4C159.5,557,158.4,556.3,157.4,555.5z"/>
		<path class="st0" d="M173.1,515.1c0.1-2.3-0.1-5-2.8-5.6c-0.3,0.1-0.6,0-0.8-0.1c-5.5,1.2-27.1,11.6-13.1,15.7
			c6.1,5.1,11.4,14.6,3.3,20.6c-1.3,0.9-1.9,2.4-1.5,3.9C176.4,569.7,176,524.7,173.1,515.1z"/>
		<path class="st0" d="M292.2,314.2c-1.6,1.7-1.1,4.3-2.1,6.3c-1.6,3.1-3.8,7.5,0.7,9.3c8.3,0.7,13.9,9.8,21.2,9.8
			c9.4,1.2,17.9-4.5,27.1-5c6.5-1.2-1.8-9.2,5-13.8c-2-1.3-3.6-3.7-5.8-4.7c-0.4,0.6-1,0.3-1.5,0.4c-1.4,1.2-2.3,2.9-4.2,3.5
			c-3.2,2.4-9.1-0.8-10.5,3.5c-0.4,1.7-1.4,3.2-2.9,4.2c-0.1,0.2-0.2,0.4-0.3,0.6c-0.5,0.1-0.9,0.2-1.4,0.2
			c-3.1,1.8-8.9-1.8-9.8-5.3c-2.7-7-2.5-8.1-10.6-8.5c-1.3-0.2-2.7-0.7-4-1C292.9,313.9,292.6,314.1,292.2,314.2z"/>
		<path class="st0" d="M219.9,287.5c-7.6-0.1-24.2,7.5-18.8,16.8c6.7,6.3,11.5-6.8,19-5.1c7,0,16.9,3.3,16.7,11.8
			c0.3,3.3-3.9,5.6-2.5,8.8c4,3.1,9.3,1.4,13.9,0.5c10.8,1.1,17,13.1,20.2,22.4c0.4,5.6,4.8,12.7,11.2,10c2.1-1.5,1.8-4.8,2.6-7.1
			c0.3-2.8-2.3-5.4-3.5-7.8c-0.7-0.6-1.3-1.4-2.3-1.6c-3.6-3.6-7-7.4-10.1-11.5c0,0,0,0,0-0.1c-10.6-13-22.8-24.6-36.1-34.7
			C228.3,287,223.1,287.5,219.9,287.5z"/>
		<path class="st0" d="M191,337c0.6,2.8,1,8.1,5.3,6c1.8-4.3,5.9-6.8,10.5-5c13.2,3.3,11.4-14.2,22.5-5.4c2.5,4.5,5.1,0,8.3-0.5
			c5.9-1,10.5,2.6,10.9,8.3c0.8,1.3,2.1,0.3,2.8-0.5c10.2-5.2,11.4,9.9,10,16.5c0.3,5.5,5.8,8.7,11,9.1c2.6,0.2,5.6-1.6,8.2-0.5
			c2.4,1,3,3.6,4.2,5.7c3,5.9,10,7.7,15.3,10c0,0,0.1,0,0.1,0c0.5,0.5,0.9,1,1.5,1.5c0,2.8-0.9,5.6-2.6,7.8c-0.8,3.2-2.1,7.8,0,10.7
			c4.8-1.5,8.5,4.3,10.9-2.7c0.9-2.6,4.8-4.5,4.5-7.3c-0.9-0.7-1.5-1.6-2-2.6c-2-1.6-0.7-4.8-0.3-6.7l0,0c7.2-11,20.2-7.4,14.1,2.5
			c-1,0-2.1-0.1-3.1-0.2c-0.1-0.3-0.2-0.7-0.1-1c3.1-1.3,1.5-6.4-2-5.5c-3.6,1.1-5.9,4.5-5.7,8.2c0.1,2.1,1.6,3.8,3.7,4.1l0.3-0.1
			c2.1,0.3,4.2,0.5,6.3,0.4c0.4,0.8,0,1.7-0.7,2c0,0-0.1,0-0.1,0l0.1,0.2c-8.9-1.1-11.4,8-16.4,12.9c-1.3,0.9-2.3,0.2-3.4-0.5
			c-5.6-3-9.4,1.7-13.6,4.7c-4,4.7,3.9,12.3,6.8,16.4c4.1,7.4,11.6,0.9,16.4-2.4c2.6-2.8-0.8-5-2.5-7c-1.6-3.8,2-8.3,3.9-11.3
			c3-4.6,8.9-6.6,13.6-3c0.6,3.8-2,7.4-1.5,11.2c0.4,1.5-0.5,2.9,1.2,3.9c4,1.3,10.4-1.5,13,2.8c5,5.2-3,10-3.6,15.1
			c2.1,1.3,3.2,3.8,5.4,5c1.5,2.9,0,5.7-0.1,8.6c-1.1,7,5.9,7.7,10.3,4.7c9.5-9.8,16.1-13.4,30-13.4c1.2,0.6,2.7,0.1,3.3-1.2
			c0,0,0-0.1,0-0.1c4.3-11.1,16.7-5,25.1-9.9c3.9-1.5,2.5-6.2,4.6-8.9c5.5-1.6,2.7,8.1-0.4,9.9c-0.7,2.1-3.9,3.2-5.9,4
			c-5,1.1-11.3-2.3-16,1.1c-6.2,3.6-6,13.4,0.8,15.8c0.5,0.1,1,0.4,1.3,0.8c15.5,2.5,5.9-12.7,15.3-13.9c6.9-2,14.4,4.5,21-0.4
			c5-3.9,8.3-11.5,6.1-17.6c-1.9-4-7.1-3.3-10-6.2c3.8-7.9,15.3,2.1,21.5-0.1c4.9,0,10.5-4.7,12.4-9.6c0.8-0.4,1.4-1.2,1.6-2.1
			c2.2-10.1,6.6-19.6,8.9-29.8c1.7-3.2,2.8-6.6,4.6-9.8c0.8-1,1.9-2.5,1-3.5c-1.7-1-4.3-1.9-6.2-1c-2.4,3.9-3.2,9-8.2,10.5
			c0,0,0,0,0,0.1c-0.5-0.1-0.9,0-1.4,0.2c-3.3-1.3-7.8,1.3-7.3,5c3.2,7.8,17.9-8.4,8.4,11.3c-1.4,3.4-1.1,7.1-3.4,10.3
			c-1.3,1.8-4.2,0-2.9-1.7c2.5-4.8,2.7-10.1,5.6-14.9c-2.6,0.7-5.3,1-7.7,0c-0.2,6.1-4.9,11.2-4.5,16.9c-0.5,1.1-1.2,2.2-2,3
			c-8.9,1.4-23.4-3.5-30.5,2.4c-0.3,0.4-0.5,0.9-0.6,1.3c-0.1,8.5-6.6,2.6-2-2.2l0,0c1.8-2.9,5.6-3.4,8-5.1c2.1-3.8,1.4-11-4.4-6.5
			c-2.9,1.8-6.3,0.9-8.4-1.6c-2.6-3.7-2.6-8.5-3.2-13c-7.3-12.1-24.9-2.2-36-6.3l0,0c-4.8-2.9-12.9-6.8-16.7-0.5
			c-0.1,0-0.2,0.1-0.3,0.1c0,0,0,0,0,0c-0.2,0.3-0.3,0.7-0.5,1c0.1,0.1,0.2,0.2,0.3,0.3c-0.4,2.4,0.4,4.9,2.2,6.5c0,0,0,0.1,0,0.1
			c4.8,3.3,11.2,2.3,16.3,0.2c-0.3,0-0.6-0.1-0.8-0.3l0.9,0.3c7.6-3.6,21.3-3.9,20.8,7.6c1.2,2,4.1,3,6.1,4.1
			c4.8,2.4,4.5,9.4,1.8,13.5c-2.6,3.9-8,3-12.1,3.2c-7-2.1-9.6,6.4-14.3,9.6c-1.1,0.8-2.7,0.5-3.4-0.6c-0.3-0.4-0.4-0.9-0.4-1.3
			c0.4-5,7.6-8.6,11.8-10.6c4.6-2,10.5,1,14.9-1.3c3.5-3.5,1.9-9.6-2.6-11.3c-5.1-0.3-10.2,2.7-15.4,1.2c-4.2,0.1-7.5-5.9-1-2.9
			c4.4,2.8,11.6,1.1,11.4-4.7c-1-8.2-13.3-7.2-17.7-2.6c-5.2,1.5-11,3-16.2-0.2c-9.6-5.9-2.3-12.3-18.7-13.5l-0.1-0.1
			c-11.9-1.1-29.3,13.8-38.3,0.8c-8.6-20.4,4.8-14.6,17.8-11.1c0.1-0.1,0.2-0.3,0.2-0.4c6-1.4,11.3-4.9,17.6-4.8
			c1.9,5-21.3,10.6-25.1,7.9c-10.9-7.3-11.9-1.1-7.3,8.3c11.4,8.7,29.7-11.8,45.4-1.4c0,0,0,0.1,0.1,0.1c4,2.1,5.9-2.3,8.9-3.9
			c3.7-1.1,8.2-2,11.3,0.8c11.2,9,27.5-0.8,39.5,6.4c1.7,1.4,4.6,5.4,2.6,7.1c-1.5,9.8,6,15.4,13.3,7.5c0.8-7.4,2-14.7,3.7-22v0
			c0.5-8.1-4.9-9.4-11.6-7.4c0,0.1,0,0.2,0,0.3c-2.1,1.3-4.1,4-2.8,6.8c0.8,2.8,8.2,0.1,6.2,4.2c-2.2,2.2-5.5,0.7-7.4-1
			c-2.2-2-0.8-8-4.8-7.4l0,0c-13.1,2.7-26.9,2.5-38.8-4c-1.4-0.4-2.5-1.2-3.9-1.6c-0.1-0.2-0.2-0.4-0.3-0.6
			c-1.9-1.7-7.8-4.6-4.7-7.4c2.3-0.7,3.1,3.3,4.9,4.3s3.4,2.2,5,3.2c4.5,4.3,11.4,5.2,17.3,5.1c7.5-0.6,15.5,0.2,22.8-2.3
			c5-1.4,11.3-6,16.5-3.4c3.1,1.8,2.6,7.3,6.2,8.1c1.5,0,2.6-1.8,3.9-2.5c2-1,4.4-1.3,5.6-3.5c3.4-6.9,10.3-8.8,16.9-11.1
			c-0.1,0.2-0.1,0.4-0.2,0.5c5.4-3.2-0.7-8.6-5-8.8c-2.5-0.7-6.7-3.4-8.2-0.3c-2.5,3.3-3.4,7.8-6.8,10.7c-0.4,0.4-2.1,2.5-2.8,1.2
			c2.6-5.7,10-11.4,6.9-18.6l0.2-0.2c-2.2-7.5-8.5-8.7-10.8-0.6c-0.9,3.6,0,7.8-2.7,10.7c-0.2,3-7.6,5.3-5,1
			c3.5-1.5,2.5-4.4,4.2-4.6c-0.3-10.6,8.8-23.3,16-9v0c1.2,1.6,2,3.4,2.6,5.3c3.9,2.5,9.2,1.7,13.1,4.6c3.1,2.3,3.9,7.4,0.8,10
			c-3,2.4-7.2,1.4-10.5,3.6c-2.3,1.8-8.2,5.4-4.5,8.4l0,0c6.4,2.2,6.1,8.8,11.5,11.3c8.8-1,12.5-8.6,11.5-16.7c1.3-5,7.5-6.8,11.9-5
			c0.3,0.5,1.1,0.5,1.3,1c7.3,4.5,8.4-41.8,9.1-47.2c0.2-0.1,0.4-0.3,0.6-0.5c-0.3-3.1,0.7-6.1-0.4-9c-6.4-1.7-14.1,1.6-19.3,5.1
			c-5.5,6.2-3,9.9,5,8.7c1.4-0.3,3.8,2.4,1.3,2.5c-2.7,1.1-7.3-0.5-8.8,2.9c-0.3,4.5,8.6,6.3,7.6,12.9c-0.2,12.9-28.3,10.7-24.1-9.2
			c-0.3-2-1.5-3.8-3.2-4.8l0,0c-3-2.4-7.1,0.3-10-0.7c-10.2-2.5-3.5-7.1-5.2-11.7c-3-4.8-10.1-6.1-12.8-11.2c-0.8-0.6-1-1.7-1.6-2.4
			c-0.8-2.9-5.3-4.5-8-3.5c-1.4,0.9-2.6,1.9-3.7,3.2l0,0c-0.4,1.1,0.6,2.2,0.3,3.3c-3,4,0.2,4.8,3.7,5.9c2.6,1.3,4.4,4,6.8,5.5
			c2.9,3,0.8,7,2,10.5c3.1,4.3,5.6,10.6,0,14.1c-4.5,1.2-9.1-1.4-10.3-5.9c-0.3-1.1-0.4-2.3-0.2-3.5c0.1-0.8,0.8-1.4,1.5-1.3
			c0.7,0.1,1.2,0.6,1.3,1.3c0,1.9,0,4.2,1.6,5.5c2.3,2,6.1,1.6,6.2-2c0.4-3.6-3.1-6.3-3.7-9.7c1.3-7.1-4.6-11.5-10.3-14.1
			c-2-0.6-4.1,0.9-3.3,3c3.1,3.3,2.7,8.4,1.5,12.5c-0.8,3.7-3.5,6.5-4.2,10.2c0.9,3.6,1,6.1-2.5,8l-0.3-0.2c-7,0.5-7.9,2-12,6.9
			c-1.5,2.8-14.3,6.8-12.1,0.8c2.8-2.3,7.2,0.3,10.3-3.3c6.1-10.1,13.2-4.6,13.8-8.6l0,0c-1.6-8.3,9.9-17,3-24.6
			c-2.7-2.2-3.2,1.8-5.3,2.6c-0.6-0.2-1.2-0.1-1.7,0.3c-0.5,2.8,2.9,8.4-1,9.4l0,0c-3.7-0.6-0.6-5.7-1.8-7.8
			c-1.5-1.8-3.5,0.8-5.1,0.8c-3.1-0.2-4.6-0.3-4.5,3.5c-0.2,2.5-0.2,5.5,3.1,5.5c4.2,0.3,7.5,4.1,4.9,8.1c-0.1,0-0.2,0.1-0.3,0
			c-1.5,1.3-3.5,1.3-5.5,1.8c-2.4,1.4-3.3,4.6-6.1,5.3c-1.5,0.9-3.1,1.5-4.8,1.7c-1.4,1.1-2.5,2.8-4.4,3.4c-1.5,0-2.6,1.3-2.6,2.7
			c0,0.2,0,0.3,0.1,0.5c0.1,0.1,0.2,0.1,0.3,0.2c0.6,1.3,1.8,4,3.5,4.1c7.5,8.8,21.3,1,26.5-6.7c1.1-0.6,2.1-1.5,3-2.4
			c0.5,0.3,1.2,0.4,1.8,0.2l0,0c3.1-1.7,6.4-1.8,9.7-1.5c2.4,0.6,4.5,1.8,6.3,3.5c0.5,3.2-1,6.2-2.4,9.1c-4,1.5-18.4,14.8-20.5,6.8
			c4.1-3.8,19.1-4.5,19.5-12l0,0c-1.5-11.4-16.4-1.3-20.4,3.3c-1.9,1.4-4.1,3.6-6.4,3.9c-9.1,4.8-16.5,2.9-22.3-5.5
			c-1.6,0.6-3.1-1.6-4.7-1.7c-1-0.1-2-0.1-3,0.1c-8.9,0.1,0.8-8.7-5.1-12.3c-1.2-0.5-2.4-0.5-3.6,0c-9.6,2.2-4.7,11-2.2,17
			c0,3.5,2.3,6.5,3.9,9.4c0.7,2.2-0.4,4.6-2.4,5.6c-4.9-0.1-1-4.1-1.3-6.8c-1.9-6.8-5.7-11.6-13.1-7.9c0.9,0-2.4,1-3,1.3V339
			c-1.1,0.4-2.2,0.8-3.3,1.1c0,0.1,0,0.1,0,0.2c-5.2,1.5-10.7,3.7-16.2,3c-1.9,0.8-4.4-1.3-6.1-2.1h-0.2c-3.9-3.6-8.9-7.1-14.3-8.2
			l0,0c-0.8-0.1-1.6-0.3-2.4-0.6c-1.7,1.6-3.9,11.2-2,13c9.6,2.7-2.6,17,6,21.3c9.6,6.1-1.1,7.9-4,0.3c-1.1-1.5-2.3-3.2-2.3-5.2
			c-1.3-3.4,4.9-15-1.8-13.9c-1.4,0.7-0.6,2.9-1,4.2c-2.8,7.5-13.9,4.3-16.5-1.7c-3.3-10.1-8-28.1-21.6-26.3c-0.8,0-1.8,0.5-2.5,0
			c-5.8,1.6-10.7-1.7-14.9-5.4v0c-5.8-2.5-11.9-0.2-14.9,5.1c-1.8,2.4-9.8,6.2-10.7,1.9c0.8-4,6.1-0.9,8.1-4c1.5-1.3,2.3-3.1,4-4
			c3.5-5.1,10.8-2.9,15.7-2c2.3-0.5,4.1-1.9,3.9-4.7c-0.6-7.1-9.7-8.1-15.2-7.9c-5.7-0.6-7.8,5-12.1,6.9c-3.1-1.4-6.2-4.8-9.7-3.6
			c-5.9,3.8,1.9,11.5-3,16.4C187.3,324.1,190.2,332.3,191,337z M354.3,398.2c1-0.5,1.7-1.3,2.1-2.3c7.6-18.5,19.7-0.5,7.7,10.8
			c-1.9,3.6-7.1,4.1-8.4,8.2c1,1.9,1.3,4.1,0.9,6.2c-3.8,3.2-7,9.5,1.2,7.5c3.1-0.6,6.1,3.5,9,1.8c0.2,0,0.4-0.1,0.6-0.2
			c0-0.1,0.1-0.2,0.2-0.3c3.1-1.3,1.9-5.1,3.7-7.2c4.2-6.7,14.7-3.5,21.4-4.6c1.2-1.7,1.2-4.3,3.1-5.7c1.5-3.1,23.9-4.8,16.7,0.7
			c0,0.1-0.1,0.2-0.1,0.3c-21.8-1.8-9.8,5.6-20,8.4c-5.4,0.2-11.4-0.2-16.6,1.1c-1.5,1.1-1.8,3.3-2.8,4.9c1,4.5-4.3,7.6-8.3,7.2
			c-2.9,0-3.5-2.5-5.6-3.8c-2.6-0.6-7.3,2.4-8.6-1.3c-2-3.3,0.7-6.7,2.7-9.1c3.6-7.9-7.5-7.6-10.6-12.7c-1.1-2-1.1-6.3,1.3-7.4
			c2.4-0.6,3.6,1.7,2.4,3.6c-0.3,1.6,0.5,3.2,2,3.9c7.4,6.4,16.7-4.3,17.8-11.7c0.7-1.9,0.8-4-1-5.4c-2.9-2.5-4.7,2.2-5.9,4.3
			c-2.1,7.2-9.9,7.2-6.5,3.7C353.2,398.7,353.7,398.4,354.3,398.2L354.3,398.2z M333.9,379c8.6-7.3,20.4,2.5,14,11.8
			c-4.7,4.5-15.1,4.5-17.1-2.8C331.3,384.9,331.2,381.2,333.9,379z"/>
		<path class="st0" d="M129.7,268c5.4,1.5,13.2-6.9,10.6-11.8C135.9,253.3,123.4,264.8,129.7,268z"/>
		<path class="st0" d="M136,299c2.7,8.7,14.5,2.5,8.3-4.1l0,0C141.5,291.2,134.6,294.5,136,299z"/>
		<path class="st0" d="M113.2,353.4c0.8,2.7,4,2.8,6.2,3.7c3.4,2.5,10.7-0.1,10.3-4.8c0.7-1.5-1.2-2.3-1.8-3.4
			c-4.5-2.3-8-5.3-8.7-10.6c-2.7-5.4-1.1-10.2,1.2-15.3c0.2-6-0.3-12.6,1.7-18.3c-0.1-2,3.7-2.5,3.4-0.1c-1.2,6.3-2.1,12.5-1.8,18.9
			c1,2,4.5,1.4,4.8-0.8c0-2.4-0.3-4.7,0.2-7.1c0.1-2.2,0.8-4.1,0.5-6.3c-0.4-1.5,0.3-3.4,2.1-2.8v0.1c3.3,3.1-1.6,11.2-0.4,15.8
			c-1,2.4-1.5,6,0,8.2c13.9,0.6,2.5-6.7,6.8-23.5c-1-3-4.4-3.6-5.1-6.9c1.4-4.1-2.2-6.7-5.7-7.8c-3-3.3-6.6-9.6-11.3-6.7
			c-2.6,4.5,1.1,9.8-0.1,14.6c-0.1,14.7-2.3,29.5-2.7,44.2c-0.1,1.2-1,2.2-0.7,3.4C111.9,349.9,112.3,351.8,113.2,353.4z"/>
		<path class="st0" d="M152,411.3c-1.2-3.6-2-8.9-6.8-9.1c-4.8-0.6-6.5,2.8-7.1,7c-2.3,1.9-5.7,0.9-8.2,2.6
			c-9.1,9.6,6.6,25.5,5.2,38c8.1,5.5,12.9-10.3,16.3-15.3c1.3-2.5,4.1-4.3,5.1-6.9c0.9-3.5-4.1-5.5-3.7-8.6
			C152.3,416.6,152,414,152,411.3z"/>
		<path class="st0" d="M465.3,509.9c0.4,0.6,1,1,1.7,1.1c1.9,2.3,5.2,0.4,5.4-2.2c1.5-2.9,4.2-4.5,7.1-5.8c6.7-9-0.5-32.5,18.6-27.1
			c0,0,0,0.1,0.1,0.1c4.9,0.4,7.8-6,13.9-6.2c0.8-1.5-0.5-3.1-1.6-4.1c-1.9-4.7-8.8-3.6-12.7-2.6c-5.6,0.8-21.1-1.1-17.9,8.3
			c0.5,1.3-0.5,2-1.6,2c-3,0.2-2.9-4.7-2-6.8c2.2-11.7,38.8-0.9,19.4-14.9c-0.2-2-3-1.9-4.3-1.1c-6.8-0.7-12.1,7.5-18.6,4.8
			c-2.7-0.5-5.3-1.4-8.2-0.6c-7.1,1.7-6,10.1-10.1,14.6c-2.6,2.4-5.7,9.7-0.4,10.9c2.9-0.1,6.6,1,9.1-0.5c0-4.5,5.3-7.6,4.6-12.1
			c-0.4-1.8-1.5-3.4-2.2-5.1c-0.8-2.3,2.8-3.3,3.6-1c8.9,12.4-12.8,19.6,5.4,21.6c-0.4,1.5-0.7,3-1,4.6c-12.1-2.8-24.3-4.6-36.7-5.4
			c-8.7-0.6-2.7,9.2-0.2,12.9c5.1,6.2,20.6-7.1,27,5.7C465.3,503.9,463.4,507.5,465.3,509.9z"/>
		<path class="st0" d="M476.8,543.7c0.7-1.2,1.3-2.7-0.2-3.5c-11-7.9,3.9-13,8.6-18.5l0,0c0.7-0.8,1.3-1.7,1.8-2.7l0,0
			c2.9-4.6,3.4-12.2-3-12.5c-4.8-0.6-8.6,3.6-10.9,7.6c-0.2,0.4-0.2,0.9-0.1,1.3c-0.3,0.4-0.5,0.8-0.4,1.3
			c-2.2,5.4-6.1,14.6-13.3,12.5c-5,0-4.2-5.5,0.3-4.2c2.6,1.5,3.8,0,5.6-1.6c1.7-1.9,3.2-5.3,1.8-7.4c-0.1,0-0.3-0.1-0.4-0.1
			c-2.3-2.5-11.6-1.7-13.3,1.4c-0.3,0.1-0.5,0.3-0.8,0.4c0,0.1,0,0.2,0,0.3c-5.9,4-11.3,18.8-0.4,19.3c2.2,0.3,4.5,0.4,6.4,1.8
			c0.2,0.5,0.4,1,0.7,1.5c-0.6,0.4-1.1,1.2-0.8,1.8c-3,4.6-4.2,9.6,0.4,13.2c0.3,2-2.8,1.7-3.5,0.4c-4.2-3.1-1.5-9.5-0.5-13.5
			c0.2-2.1-2-2.8-3.7-2.6c-5.6,0.1-9.6-5.8-7.7-11.1c0.9-2.6,2.1-5.1,3.6-7.5c0-0.7,0.1-1.5-0.6-1.8c-0.1-0.4-0.3-0.7-0.5-1
			c-0.9,0.1-1.7-0.4-1.9-1.3c-13.8,0.5-4.7,21.2-10.9,28.8c-5.4,5.9-14,3.9-21,6.1c-4.4,2.5-0.8,6.6,3.1,6.1
			c11.2,1.8,22.9,4.2,34.2,3.6c4.8,0,9.8,0.6,14.5-0.8c0.2,0.1,0.4,0.2,0.6,0.3c2.8-1.3,3.4-4.5,4.6-7
			C471.2,550.6,474.3,547.4,476.8,543.7z"/>
		<path class="st0" d="M524.5,520.3c-3.8-1.8-8.3,1-12,2.3c-4.3-1-1.1-3.5-3.2-5.6l0.3-0.7c-0.3-2.3,0.4-4.6,1.9-6.3
			c0.4-6.5,12.9,4,10.1-5.1v1c-1.3-3.1-4.9-3.4-7.9-3.5c0,0-0.1,0-0.1,0.1c-2,0-4.5,0.5-5.7,2.2l-0.1,0.1c-1.5,2.7-2.5,5.7-2.8,8.8
			c-3,4.2-9.1,1.3-12.7,4.4c-0.6,1.5-1.3,3-2.3,4.4h0.1c-2.6,7-18.7,9-9.5,15.7c0.4,0,0.7,0,1.1-0.1c0-0.1,0-0.2,0.1-0.3
			c0.3,0,0.5,0,0.8,0c2.5-2.4,5.2-4.6,8-6.6c1-1.9,3.4-3.1,4.1-5.3c0.1-1.7,0-4.3,2.1-4.4l0,0c2.4-0.3,2.4,2.3,2,4c0,0,0,0.1,0,0.1
			c-0.8,0.8-1,2-0.6,3c-1.2,2.2-3.4,3.6-4.7,5.6c-0.4,0.2-0.8,0.5-1.1,0.7h0.3c-5.8,4.3-11.9,9.2-15.5,15.8c-3,1.3-4.9,5.4-5.3,8.5
			c-0.1,3.9,5.3,4,7.3,1.8c6.3-1.2,11.1-7.2,11.6-13.6c0.2-1.2,0-3,1.1-3.9c3.9-6.1,13.5-2.4,17.7-8.5c1.2-1.4,2.1-3.2,4-3.7
			c3.4,0.2,0.1,4.3-1.1,5.5c-2.8,3.2-7.3,4.8-11.4,5.2c-0.8,0.6-1.9,0.5-2.8,0.8c0,0,0-0.1,0-0.1c-6.3,1-4.9,8.6-7.5,13
			c4.3,5.8,18.5-6,23.1-8.9C519,543,529.7,525.3,524.5,520.3z"/>
		<path class="st0" d="M333.3,529.4c-0.3-3.3-2.7-5.5-4.1-8.2c-0.2-0.1-0.4-0.2-0.6-0.3c0.7-5.8,7.5-8.7,12.8-9.2
			c1.2-0.7,2.4-1.2,3.7-1.6c7.7-3.6-2.3-9-6.7-6c-4,1.6-5.9,5.7-9.4,7.8c-11.7,5.1-14.6-9.9-7.4-16.4c-0.6-4-5.8-2.8-8.7-2.7
			c-2.9,1.2-5.1,3.7-5.9,6.7c-1.2,1.3-1.9,3.5-4,3.6c-0.8,0-1.8,1.6-1.4,2.1c2.3,4.1,5.5-2,7.8,7.1c2.6,3.1,7.6,2.7,10,6.3
			c7.4,9.2,1.2,23.5-10.6,15.3c-1.6-1-2.7-2.6-3-4.4c-2-3.3,6.1-9,7.3-4.2c-0.1,2-2.9,1.6-4,2.6c-1.1,3,3.2,4.6,5.6,4.6
			c7.7,2.3,6.1-12.8-4.6-16.6c-5.1-0.7-10.4,0.2-15.3-1.3l-10.1-4.1c0-0.1,0-0.2,0-0.3c-4.6-2.2-17.2-2.5-15.4,5.3
			c2.1,12.8,9.7,0.9,18.4,8.3c4.5,5.5,7.5,12.2,12.5,17.3c6.7,6.3,19.9,8.2,28.3,5.2C332.4,542.2,333.2,535,333.3,529.4z"/>
		<path class="st0" d="M412.9,547.3c19.2-1.4,17.6-1.7,19.6-19.9l0,0c-1.6-3.9-7.7-4-10.8-1.8c0.6,7.1-5.6,11.1-11.5,13.2
			c-5.3,4.3-15,3.3-16.8-3.8c-0.5-4.5,1.3-9.3,2.9-13.5c2.3-2,8-3.5,6.2,1.7c-4.6,2.5-7.1,10.3-1.8,13.3c0.8-0.5,1.8-0.3,2.3,0.5
			c11.9-1.2,15.3-6.8,15.7-18c0.3-7.4,3.5-14.9,0.7-21.7c-1.2-0.7-2.5-1-3.9-0.9c-3.1-0.4-7.1,2.6-10.3,0.7
			c-3.1-3.3,2.8-3.8,4.7-4.3c4.2-0.8,10-1,12.7,3c0.1,0,0.2-0.1,0.3-0.1c1.1,4.7,0.8,10.2,0.8,15.1c0,0.1-0.1,0.1-0.1,0.2
			c-0.1,3.2-2.1,8.9,2.3,9.8c5.3,1.5,6.7,0.8,9.5-3.7c3.6-4.6,9.1-1.1,13.7-2.6c1.6-1.5,3.5-2.5,5.5-3.1c3.9-0.6,6.8-2.7,6-7
			c-0.6-5.6-8.4-5.8-12.6-4.7c-0.6,0.7-1.4,1.2-2.3,1.4c-24.2,7.5-5.4-24.3-33.4-17.6c-4.2,1-12.6-1.3-12.3,5.3c0,0,0,0-0.1,0l0,0
			c0.2,3.8-1.2,7.6-3.8,10.4c-4,1.9-10.9,1.8-13.2,5.7h-0.1c-2.8,5.2-1.2,11.1-2.5,16.6c0.8,2.5-0.2,9.1-3.9,6.6
			c-2.2-2.1-0.6-4.9,0.3-7.3c0.4-5.4,1.6-10.8,1.6-16.2c3.2-5.7,10.4-6,15.7-8.6c4-6,4.5-12.6-5.3-11c-9,0.2-18,1.9-26.5,4.9
			c-4.8,0.7-10,1.2-14.7,2.7c-9.1,0.4-24.1-0.6-26.9,10.5c-0.4,2-0.6,5.7,1.8,6.6c5.6,1.6,8.4-4.7,12.5-7.2c5.7-5.2,20-0.3,15.2,8.2
			c-4.1,5-11.3,3.6-16.7,7.4c-2.9,4.2,3.1,7,2.9,11.2c0.8,9.8-10.4,21.7,6.4,20.1c9.4,2.1,4.8-9.9,11.3-11.5
			c4.3,0.3,9.7,2.1,12.8-1.9c1.5-3.9,2.9-9.7-2.1-11.5l-0.1-0.2c-2.7-0.8-5.9,1.7-8.7,2c-5,0.4-11.3-1.3-14.8-4.8l-0.1-0.1
			c-1.4-1.3,1.1-2,2.2-1.5c3.7,1.9,7.9,4.2,12.1,3.6c6.7-1.3,5.8-8.9,7.6-13.8c0.3-0.9,0.3-2-0.1-2.9c1.5-10.8-5.1-8-4.2-11.7
			l-0.2-0.2c0.1,0,0.2-0.1,0.3-0.1c9.7-1.7,7.8,13.9,5.9,19.9c0.1,0.1,0.1,0.1,0.2,0.2c-0.5,1.7-1.1,3.6-0.3,5.3
			c-0.1,0.3-0.1,0.7,0,1c15.8,4.4-2.8,20.1,10.2,19c2.3-0.4,4.4-1.7,5.7-3.7c12.9-6.7-1.5-31.6,17.8-31.5c1.6-0.9,4.2-0.4,5.3-1.8
			c3.8-1.4,10.3-1.7,10,4.1c0.7,5.3,1.3,13.6-5.9,14.1V521c-2.3-0.6-1.8-3.8,0.1-4.7v-0.1c2.9-1.8,3.5-7.5,0.2-9.5
			c-5.3-0.9-14.3,0.4-17.1,5.8c-1.9,4.9-0.1,10.4-1.6,15.4c-1.8,8.3-8.8,15.4-17.4,15.2c-2,0.7-3.7-1-5.5-1.5c-3.3-0.8-6.6,0.3-10,0
			c-3.4,1.1-7.1,8-1.4,8.6l0.1,0.1c13.9,1.3,27.6,3.8,41.4,6.2c4.3,0.7,9.6,2.4,9.6-3.9C406.4,549.5,410.5,548.1,412.9,547.3z"/>
		<path class="st0" d="M219.6,489.2c8.1,7.5,17.1,6.8,17.5-5.7c-0.4-1.6-2.8-2.3-4.2-1.4c-4.2,0.3-13.2-1.8-13.7,4.2
			C218.5,487.2,218.8,488.2,219.6,489.2z"/>
		<path class="st0" d="M219.3,533.8c0.1-0.1,0.2-0.2,0.3-0.4c-3-8,0.3-17.9,9.2-20.1c8.1-2.8,0-7.3-4.6-7.2
			c-3.1-0.7-7.6-1.3-8.8,2.7c-0.8,7.1-9.4,9.7-15.2,6c-1-0.5-2.2,0-2.6,1c-0.2,0.5-0.2,1.1,0,1.6c-3.6,3.8-7.2-0.8-10.7-2
			c-4.6-0.9-11.3,2.9-9.8,8.1l0.1,12.1c-0.1,3.8-1.1,9.2,4.3,9.2c15.8,3.2,6-8.1,8.4-14.8c2.5-2.7,3.2,3.7,3.4,5.4
			c2.3,16.2,15.6,5,26.7,7C222.3,540.2,220.8,536.3,219.3,533.8z"/>
		<path class="st0" d="M292.8,537.4c0-0.2,0-0.3,0-0.5c-2.7-2.7-4.9-5.7-6.5-9.1h-0.1c-4.5-7.5-11.2-0.6-16.5-3.1
			c-3.8-3.5-3.7-9.7-7-13.7c-1.3-3-5.4-8.5-9.1-5.7c-1.6,4.7,2.6,8.8,3.4,13.7c2.3,11.7-13.2,2.6-18.6,6.3c-0.6,1.7,0.1,3.5,0.8,5
			c0.5,1.1,0,2.3-1,2.8c-0.4,0.2-0.7,0.2-1.1,0.2c-4-0.9-3.1-8-0.9-10.5c5.1-3.4,12.1,0.6,17.5-1.3c1.4-5.2-5.3-11-3.1-16.7
			c3.5-7.5,12.6-0.9,15.1,4.2c2.4,1.2,4.7-1.2,6.9-1.9c2-1.1,4.9-0.1,6.9-1.2c6.4,0.6,11.3,5.5,17.5,6.8c2.9,0.1,11.7,1.5,8.4-3.8
			c-3.2-0.5-9.4-1.7-6.1-6.1c1.9-1.5,3.6-3.1,5.3-4.8c0.4-0.9,1-1.7,1.6-2.4l0,0c4.5-6.6-8.1-7.9-8.7-1.2c-2.9,4.1-9.9,4.7-14.2,5.4
			c-11.3,2.2-22.2-1.2-31-8.2c-5.2,0.5-3.6,0.1-6.5,4.1c-2.4,1.4-3.1-2.1-2.3-3.6c1-2.2,3-3.7,5.3-4.2c6.2-0.5,10.1,5.8,15.7,7.6
			c9.3,3.1,20.1,2.2,29-1.5c10.4-9.6-24.1-17.4-30.5-15.8c-6.3,3,4.5,7,7.3,7.3c0,0.1-0.1,0.3-0.1,0.4c2.1,0.5,6.9,2.3,8-0.1
			c-0.2-1.1,0.7-1.6,1.5-1.9c2-0.7,4.6,2.1,4.5,4c0,3.9-8.7,2.3-10.8,1.6c-6.6-1.5-14.6-4.3-18.7-9.9l-0.1,0.2c-2.5-0.3-5-0.3-7.5,0
			c-13.4,1.4-2.8,9.4-13.6,16.7c-9.1,2.3-15.6-4.7-20-11.6c-1.1-0.3-2.3-0.1-3.4,0.4c-1.9-0.3-4.7-0.8-6.8-0.2
			c-7-3.8-16.8,4.1-9.4,10.7c1.7,3.3-3,6.6-1.8,10.2c4.3,2,6.4,5.9,10.5,7.7c3.9,1.1,9.4-0.9,9.8-5.3c-0.6-0.8-0.4-2.1-1.1-2.8
			c-3.6-1.6-6.3-4.7-7.2-8.5c-3.5-6.1,3.8-5.7,4.3,0.7c6.4,8.9,20.2,1.5,26.3,10.5l0.1,0.1c0.4,2.4-0.7,4.5-2.1,6.3
			c-10.1,2.3-15.4,18.7-5.4,24.2c8.9,0.5,18.3-2.8,27.5-1.7c6.9,0.7,13.9,1.4,20.8,2.5c4.7,1.2,2.1,0.8,7,0.8
			C286.6,541.3,295.3,544.8,292.8,537.4z"/>
		<path class="st0" d="M180,515c2-0.1,3.3-2,5.2-2.5c2.7-0.7,3.8,1.6,5.9,2.6c2.1,1.4,7.1-0.8,4.4-3.2c-4.6-2.4-10.6-7.3-5.6-12.4
			c0.6-0.9,0.9-2,0.7-3.1c-1.9-2.4-3.1-5.6-2.1-8.6c-2-3.8-13.1,3.8-12.8,6.6C174.4,496.6,175.7,516.5,180,515z"/>
		<path class="st0" d="M121.6,334.3c1.2,3.3,1.2,7.3,4.3,9.4c4.2,1.6,6.8,6.7,11.1,7.3c3.3-0.9,3.7-6.6,0.6-8.2
			c-2.4-1.1-5.4-1.3-7.2-3.7c-3.2-2.9-2.1-7.2-2.3-11c-0.5-1.4-1.8-2.4-3.3-2.3C120.6,326,120.9,331.4,121.6,334.3z"/>
		<path class="st0" d="M177.1,341.3c-3.9,3-7.1,14.8,0.6,14.7c6.4-0.3,1-10.2,7.4-10.5c8.8-0.6,0.1-14,1.5-19.5
			c0.2-2.4-3.6-2.4-3.8,0c-1,2.6,1.2,5.6,0.3,8.2c-1.2,0.6-0.8,2.4-1.9,3.3h0.1C180.3,338.9,178.2,340,177.1,341.3z"/>
		<path class="st0" d="M116.9,436c0,4.5,2.8,7.3,7.3,5.5c2.3-0.8,5.8-0.1,6.7-2.9c-4.2-9.2-12.8-28.6,3.3-30.4
			c1.5-0.4,2.5-2,2.1-3.5c0-0.1-0.1-0.2-0.1-0.3c1.9-4.2,7.3-2.6,9.8-6.2c2.1-2.7,5.1-7.3,0.8-10.1c-11-10.3,2.2-20.6,13.7-15.8
			c9,4.2,11.6-9.2,17.2-3.7c3.1,1.4,0.6,7.6,3.7,8.2c2.9-1.1,7.2-1.9,8.7-4.8c0.4-6.6,0.3-13.2-0.4-19.7c-1.3-1.1-0.5-3.9-2.6-4.5
			c-1.2-0.5-2.6,0-3.2,1.2c-0.1,0.1-0.1,0.3-0.2,0.5c-0.5,2.6,0.5,5.1-1.8,7.2c-11.2,7.9-15.2-11-7-16.5c-0.2-0.5,0-1,0.4-1.3
			c10.8-6-1.8-13.3,9.4-17.3c0-0.1,0.1-0.3,0.2-0.4c-1.4-5.6-3.8-9-9.8-6.2c-6.8-1.3-9-6.4-18.8-5.1c-0.1-0.1-0.1-0.1-0.1-0.2
			c-5.7-0.1-7.5,6.8-1.7,8.3c6.1-1.2,13,1.5,14.2,8.1c0.8,1.9,1.1,4.1-0.4,5.5c-1.2,3.8-4.1,7.3-7.8,8.1c-0.3,1.1-1.6,1.2-2.6,1
			c0,0,0,0.1,0,0.2c-8.5-3.8-9.6-12-7.1-20.1c0-0.6-0.2-1.1-0.6-1.6c-6.4-3.7-1.7-11.4,4.7-11c3.1-0.3,7.1,1.4,9.6-0.8
			c2.4-2.5-0.7-4.4-3.3-5.5c-6.4-2-9.3-8-10.1-14.2c0-0.2,0.1-0.4,0.2-0.6c-0.2-0.9-0.5-1.7-0.9-2.4c-4.3-1.8-9.3-6.1-13.7-2.7
			c-3.1,2.8-9.5,0.6-10.9,4.7c7.7,12.2,10.6,1.2,18.9,5.9c5.5,4,4.9,13.4-3,13.5c-1.9,5.2-2.7,11.7-0.7,17
			c2.6,5.3-1.6,12.6-7.9,11.2c-1.3-0.1-2.3,0-1.5,1.5c3.7,5.8,14.7,3.2,11.1,13.5l0,0c-0.2,0.9-0.6,1.7-0.7,2.6H142
			c-1.7,2.9-5.9,3.7-8.7,2c-1,5.8-8,10.3-13.5,7.8c-1.9-2.8-6.6-1.4-5.7,2.1c0.4,1.3-0.3,2.7,0.3,4c1.4,5.4-4.2,28.4,2.3,28.9
			c1.6,0,2.9-1.3,2.9-2.9c1.1-7.1-2.8-22.4,8.9-20.5c0.2-0.3,0.5-0.4,0.8-0.5c5.7-22,21.3-7.4,27.9-13.8c2.8-1.9-1.8-7.6,2.7-7.5
			c7.4,2.9,0.5,14-6,12.9c-7.1-0.7-15.8-3.8-19.7,4.5c-2.5,2.6-0.9,5.8-0.6,8.7c-0.3,5.1-3.2,9.6-0.6,14.6c-0.6,6.4-7.3,1.6-5.7-3.2
			c-0.1,0.1-0.3,0.2-0.4,0.3c0.7-3.9,3.4-7.5,3.3-11.4c-0.8-2.6-4.2-2.4-5.8-0.7c-3.6,6.5,2.7,20.1-7.3,22.8c-1.4,0.7-0.7,2-1.4,3.1
			C115.7,413.9,114.4,425,116.9,436z"/>
		<path class="st0" d="M188.2,391.6c1.9-5.1,2.6-10.5,2.2-15.9c-20.1,11.8-8.6-10.2-17.3-4.7c-4.5,7.4-13.3,2.8-20.1,2.8
			c-3.6,0.3-6.3,3.5-6,7.2c0.1,0.9,0.3,1.8,0.8,2.6c3.1,6.4,10.5,5.8,16.3,7.8c0,0.1,0,0.2-0.1,0.3c5.2,1.3,9.1,5.5,13.7,7.8
			c1.5,1.3,1.2,5.2-1.3,4.2c-3.2-4.8-8.3-7.7-13.9-9.4v0.1c-4.7-1.8-11.3-4.7-11.6,3c-0.2,2,0.9,4.1,2.1,5.8c0.3,1.7,0.6,4,1.8,5.1
			c4.4,2.4,9-4.4,15.7,1.9c3.3,5.4,3.9,11.4,2.8,17.5c0,0.7-0.6,1.2-1.2,1.3c-0.2,1.2-0.6,2.4-0.9,3.6c0,0.1,0.1,0.3,0.2,0.4
			c-1.1,5.4-6.8,7.1-9.6,11.3c-5.7,13.4-4.4,13.1-15.7,22.8c-0.8,0.3-1.3,1.2-1.1,2c-0.1,0.2-0.1,0.3-0.2,0.5
			c1.9,5.1-0.4,10.7,1.1,15.7c6.6,4.3,15.8-0.3,22.4,4.4c3.8-0.6,4.5-4.4,4.6-7.7c0-7.5,2.2-16.3-1.2-23.2c-3.3-0.3-4.6,2.2-5.8,4.7
			c-2.1,3.4-5.7,5.6-7.7,9.1c-0.6,1.9-0.8,3.8-0.8,5.7c-0.7,4.6-6.6,1.6-3.3-4.8c1.2-6.2,7.9-8.6,10.4-14.1c2.2-5.9,4.8-4,9.6-4.6
			c7.9-19.9,10.6-41.3,13.5-62.2C187.9,392.3,188.1,392,188.2,391.6z"/>
		<path class="st0" d="M156.7,336.3c6.1,2.6,11.2-6.3,8.8-11.6C156,313,146.6,328.2,156.7,336.3z"/>
		<path class="st0" d="M118.5,455.4c4.5,6.9,14.9,14.4,22.9,9.6c12.8-4,12.1-19.9,22.2-26.7c7.4-3.1,7.5-14.7,6.2-21.7
			c-0.9-7.3-11.3-8.9-13.3-1.3c-2.3,2.6,0.6,5.4,2.1,7.5c4.7,6.2-3.7,9.8-5.9,14.8c-3.1,7.8-7.9,14.7-16.2,17.5
			c-4.4-1.9-3.9-7.6-4.4-11.6c-7.4-3-16.6,1.3-13.8,10.3C118,454.3,118.1,454.9,118.5,455.4z"/>
		<path class="st0" d="M583.7,485.2c9.6,4.6,14.9-9.7,5.3-13.4C580.1,468.5,574.9,481.9,583.7,485.2z"/>
		<path class="st0" d="M247.5,297.7c5.6,7.8,12.9,14.3,19.1,21.6c0.3,1.9,1.8,3.4,4,2.4c1.2-0.5,1.4-1.5,2-2.5
			c0.9-1.2,2.4-1.6,3.7-2.3c5.7-3.7,5.3-11.8,6.3-17.8c1.1-2.2-1.2-4.2-3.1-2.5c-2.4,3.1-1.2,7.8-3.3,11.1
			c-1.3,6.2-14.3,6.2-12.4-2.1c1.7-3.8,6.5-6,6.8-10.7c-0.3-2.7-1.6-5.7-4.2-6.8c-1.7-0.7-4.2,0.6-3.3,2.7
			c7,16.9-15.1,15.6-11.9,0.2c1.6-3.7,0.6-8.4-3.9-9c-0.7,0.5-1.6,1-1.5,2c-1.1,1.9-1.7,4-1.8,6.2
			C241.9,292.9,245.8,295.9,247.5,297.7z"/>
		<path class="st0" d="M248.3,278.5c2.7,2,5.6,4,6.9,7.4c0.2,1.8-0.5,4-0.8,6c0-0.1,0-0.2,0-0.4c-2.9,10,10.9,11.9,6,0.2
			c-0.1-0.1-0.1-0.1-0.2-0.2c-0.3-2.1,0.1-4.6,2-5.7c10.7-5.3,14.4,9.4,8.1,16.9c-0.2,0-1.1,0.7-0.8,0.5c-7.4,4.6,1,9.3,4.2,3
			c1.8-3.5,1-7.9,3.1-11.3c1.8-2.2,6.2-2.7,7.9,0c1.9,4-0.2,8.8-0.7,13c-0.1,15.1-13.6,9.4-11.3,20c7.5,10.4,12.9-0.2,14.1-8.3
			c0.4-3.5,4-8.2,2.1-11.3c-0.6-11.2,6-21.3,7.4-31.8c0.8-7.5-14-2.3-18.8-5.2c-4.2-1-25.3-5.6-23.4-10.9c3.4-2.4,6.7,4.1,10.1,4.9
			c7,2.5,30.7,9.7,35,2.5c1.7-3.5,0-7.6,1.6-10.8c4.6-1.9,7.4-10.8,1-11.8c-1.8,0-2.4,2.1-3.6,3.1c-2.9,3.4-8.4,1-8.6-3.3
			c-5.6-7.1-5.1,5.4-4.2,8.8c0.6,2,3.4,8.8-1,6.9c-3.5-1.9-2.3-8.7-2-12.1c1-5-0.8-10.1,0.3-15c0.5-2.3,1.9-5.5-1-6.9
			c-5.8-2.9-2.6,19-6.1,23.5c-1.5,2.1-3.7,2.5-6,2.7c-20.7-6.9-21-19.5-20.7,11.9c10,12,27.1,12.1,41.4,14c0.6,0.3,0.8,0.8,0.2,1.6
			c-12.7,2.4-28.1-1.7-38.9-9c-0.5-2.1-3.8-1.6-3.7,0.5C248.7,274.3,246.6,276.7,248.3,278.5z"/>
		<path class="st0" d="M34.5,585.8c7-4.3,7.8-28.9-3.4-26.1c-4.2-0.9-7.1,4.9-7.4,8.1c-2.7,5.1-2.1,11.6-0.6,16.9
			c0.6,0.7,1.4,1.3,2.2,1.7C28.3,587,31.6,587.7,34.5,585.8z"/>
		<path class="st0" d="M99.1,573.9L99.1,573.9c-7.4-4.7-7.7,2.1-12.5,6.2c-2,2-18.6,13.7-20.1,11.3c-4.3-5,16.6-8.5,19-14.1
			c15.9-17.3-14.2-3.6-23.5-32.1c0.2-1.2-0.7-2.4-1.9-2.5c-0.3,0-0.6,0-0.9,0c-2-1.2-4.5-0.6-5.8,1.4c0,0.1,0.1,0.2,0.1,0.3
			c-1.3,2.2,0.6,4.4,2.1,5.9c0,0.1-0.1,0.3-0.1,0.4c1.5,3.9,2,9.1-1.3,12.2c0-0.1,0-0.2,0-0.3c-3.4,1.6-3.5-3.9-1.7-5.4
			c3.3-11-10.4-12.9-15-4.2c-1.8,0.7-2.1,4.5-0.1,5.2c8.5,8.4,7,31-7.3,31.8c-7.4-2.8-3.2,7.7,0.1,9.8c1.7,2.3,6.7,3.5,9.5,2.7
			l0.6,0.2c0.3-0.2,0.5-0.5,0.7-0.8c-0.3,0.1-0.6,0.3-0.9,0.3c0.5-0.5,0.9-1.1,1.3-1.7c-0.6-3.9,0-7.9,1.8-11.5
			c0.6-0.2,0.9-1.2,1.7-1.2c7-5.5,12.8-15.5,22.8-15.1c1.3,0.1,3.4,0.6,3,2.4c-2.6,3.7-11.1,0.4-17.6,9.3c-0.2,0-0.4,0.1-0.6,0.3
			c-4.7,3.7-10.7,9.7-7.7,16.3c2,9.1,24.6,2.1,31.4,1.3c13.4,0.5,16.3-16.5,26.6-21c0.7-0.3,1.3-0.9,1.5-1.6
			C108.1,576.5,102,574,99.1,573.9z"/>
		<path class="st0" d="M558.8,358.9c0.2-0.7-0.1-1.5-0.8-1.9c0.3-1-0.2-2-1.1-2.3s-2,0.2-2.3,1.1c-0.1,0.2-0.1,0.3-0.1,0.5
			c0.1,2.2-2,2.9-3.3,4l-0.3,0.1c0,0.1,0.1,0.1,0.1,0.2c-1.3,2.3,1,5,2,7.1c-0.1,5.6,1.3,12.5-2.3,17.3c-8.5,6.4-8.3-5.5-7.6-11
			c-0.4-0.2-0.6-0.7-0.5-1.1c0-1.1-0.7-2.1-1.8-2c-2.1,0.5-1.5,3.4-1.8,5c1.6,11-2.5,26.5-14.8,29.3c-4.2-0.2-6.8-6-11.2-3.7
			c-2.7-0.4-3.6,2.6-2.1,4.5c3.1,9.1,5.8,18.3,8.7,27.4c0.2,2.5,0.6,5,1.2,7.4c0.9,2.3,3.8,1.4,3.7-1c6.1-10.6,12.1,2.6,14.9-4.1
			c-0.9-8.1,5.2-5.9,8.2-9.9c1-2.4-1.6-3.8-3.5-4.3c-6.1-0.9-10.3,5.7-16.3,5.5c-5.8-0.3-8.7-8.7-4-12.4c4.8-2.6,10.7,1.8,15.6-2.4
			c4.4-1.5,2.8-8.1,6.8-9.8c1.2-0.3,2.7,0.8,3.9,1.4c5.3,2.1,11.2-2.6,9.3-8.4c-0.5-8-5.2-4.4-9.7-1.9c-1.3-0.5-2.1-1.3-0.4-2.6
			C563,387.7,559.9,369.8,558.8,358.9z"/>
		<path class="st0" d="M590,511c1.7-5-13.2-15.5-11.3-7c-1.6,8.5-13.4,3.5-17.5-0.4c-7.8-6.9-0.9-20.7,8.9-20.4l0.2,0.1
			c5-0.1,6.2-0.4,5.7-5.8c0.2-6.1,6-9.8,11.8-9c2.8,0.8,4.9,0.3,5-3c-8.8-2.8-18.6-1-27.5-0.7c-1-1.6-2.7-3.1-2.3-5.1
			c-1.7-3.4,1-9.3-2.9-11.3c-2.8-1.6-6.5,4.1-8.2,0.1c1.1-6.3,12.4,1.7,10.8-5.9c2.4-7.5-7.3-7.6-11.5-4.5c0.1-0.1,0-0.1-0.2,0
			c0-0.1-0.1-0.2-0.1-0.3c-1.7,0.2-2.7-1.9-4.5-1c-0.8,0.5-1.8,0.7-2.8,0.7l-0.3,0.3c-0.8,0.3-1.3,1-1.2,1.8H542
			c-4.5,5.9,1.2,15.6-3.4,20.2c-2.8,1.5-1.5-5.9-1-7.3c0-6.2-0.1-18.3-9.4-13.3c-10.1,8.3,1.5,20.9,1.9,31.1
			c0.5,2.7,4.9,32.1,8.7,21.1l0.3-0.1c1.5-5.9,3-11.8,6.5-17c3.3-5,6.5-2.9,11.5-3c3.1-2.7-7.7-7.7-9.8-8.9c-0.1-1.6-0.1-3.1,0-4.7
			c2.9,5.5,13.6,6.4,13,13.8c-1.7,4.8-7.3,0.6-10.6,2.6c-6.5,6.4-8,17.3-10.1,25.9c2.6,3.2,6,5.6,9.8,7.1c0.1-0.1,0.2-0.1,0.3-0.2
			l24.4,6.6C579.9,517,590.9,522.8,590,511z"/>
		<path class="st0" d="M552.4,407.1c-10.5-5.4,0.9,9.8-21.1,10.4c-0.1-0.1-0.2-0.2-0.4-0.3c-2.2-0.1-5.5-0.3-5.2,2.8
			c0,0.5-0.2,0.9-0.7,1.2c4.7,8.8,13.3-4.7,20.3-2.4c2.6,0.2,6.3,0.5,6.8,3.7c1.5,5.4-3.8,7.3-7.8,9c-2,1-0.5,4,1.5,3.4
			c1.7-1.1,3.4-0.1,5.3,0c3-0.9,6.2-1.1,9.3-0.9c4-1.9,0.9-9.5,0.8-13.1c-0.8-4.3,1.2-9.5-0.1-13.5c0-1-0.8-1.7-1.8-1.7
			C557.4,407.2,554.9,407.7,552.4,407.1z"/>
	</g>
</g>
<g id="hit-zones" class="st1">
	<path id="diver" class="st2" d="M362.4,265.5l-0.2-0.2c0.8-1.5,1.3-3,1.6-4.6c1.3-7.1-1.5-13.9-5.7-19.5c-4.5-5.9-9.5-10.9-13-17.5
		c-0.5-1-1-2-1.5-3.1c-1.4-5.6-2.8-11.2-4.3-16.8c2.4-2.8,2.7-7.4-1.5-9.6c-6.5-3.5-14.9-5.4-20.1,1.4c-2.2,2.8-2.8,6.6-1.6,9.9
		c1.1,3.3,3.7,5.9,5.4,8.9c6.3,11.1,6.1,24.6,7.4,36.9c0.7,6.7,1.1,14.7,4.6,20.7c1.2,2.1,3,3.9,5.1,5c0.1,0.9,0.3,1.8,0.5,2.7
		c2.2,6.8,12.6,5.7,12.6-1.7c0-1,0-1.9,0-2.9c0.4-0.2,0.7-0.4,1-0.6h0.2l0.3,0.3C359.2,280.4,368.4,271.3,362.4,265.5z"/>
	<path id="little-heart" class="st2" d="M456.4,161.9c-8.3,0-8.3,12.9,0,12.9S464.7,161.9,456.4,161.9z"/>
	<path id="jump-for-joy" class="st2" d="M474.5,247c-1.7,2.7-4.6,7.8-7.9,7.5c-1.1-0.1-1.1-0.5-1.3-1.5c-0.2-1.6-0.1-3.3,0.1-4.9
		c0.6-3.3,1.4-6.5,2.3-9.8c0.3-2.7,0.9-5.4,1.7-8c0.8-2.3,1.7-4.5,2.7-6.7c0.6-0.5,1.1-1.1,1.4-1.7c0.4-0.7,0.7-1.4,1.2-2
		c0.3-0.4,0.7-0.7,1-1.1c1-1.8,1.8-3.6,1.2-5.6c-0.8-2.9-4.9-4.3-7.5-3.9c-5.4,0.8-3.9,8.5-7.5,11.4c0.1,0.3,0.2,0.6,0.3,0.8
		c-1,1.2-2.4,2.2-3.9,2.7c-1.2,0.4-2.5,0.4-3.6-0.1l-1.2,1.7l-0.9-1.9c-1-2.1-2-4.2-3-6.3c-2.2-4.5-4.4-9.1-6.5-13.6
		c-1.5-3.1-6-4-8.8-2.3c-3.2,1.9-3.8,5.7-2.3,8.8l8.2,17c1.2,2.4,2.3,5.4,3.8,7.9c-2.5,1-4.5,3.5-4.3,6.1c0.6,5.9-0.6,11.8-3.4,17
		c-3.3,5.9-9.5,10-10.1,17.2c-0.4,5.2,2.5,9.6,5.9,13.3c1.1,1.2,2.3,2.4,3.4,3.6c0.5,2.6,1.4,5.1,2.7,7.4c2.4,4.5,11,4,11.8-1.5
		c0.6-3.8-0.2-7.6-2.2-10.9c-0.2-4.1,1.1-8.1,3.6-11.4c5.1,3.6,11.2,5.6,17.5,5.8c4.8,0.2,6.8-4.1,6-7.8
		c8.7-4.5,13.5-15.4,11.6-25.8C485.2,242.8,477.2,242.6,474.5,247z"/>
	<path id="shadow-boxing" class="st2" d="M528.6,530.8c0-4.6,0.6-9.2,0.4-13.9c-0.1-2.4-0.3-4.8-0.5-7.2c-0.5-2-1.1-3.9-1.9-5.7
		c-17.6-5.5-36.5-5.2-54,0.8c-9,3.1-19.6,7.7-25.8,15.3c-3.8,4.6-5.9,10.6-4.3,16.5c0.6,2.2,1.6,4.2,2.9,6c1.1,1.5,2.9,3.4,3.5,5
		s-0.2,4.3-0.2,6.2c0,3.1,1,6.2,3.1,8.6c4.4,4.8,10.8,3,16.4,2c10.7-2,22-3.3,32.4-6.8c10.7-3.7,18.5-10.5,24.9-19.7
		c0.7-1,1.4-2,2.2-3.1C527.9,533.5,528.2,532.1,528.6,530.8z"/>
	<path id="fallin" class="st2" d="M561.2,374c-0.1-4.5-0.6-9-1.5-13.4c-0.9-4-2.5-7.9-4.6-11.4c0.5-0.9,0.7-1.9,0.8-2.9
		c0.2-5.4-3.3-9.7-8.3-11.4c-1.3-0.4-2.7-0.3-4,0.2c2.2-2.7,4.5-5.3,6.7-8c2.1-2.5,2.6-5.8,0.5-8.5c-1.4-1.7-3.4-2.6-5.6-2.5
		l0.3-0.1c6.7-3.6,9-11.6,7.7-18.7c-1.4-7.4-7-12.9-12.5-17.6c-1.9-1.8-4.6-2.3-7-1.3c-2.1,0.9-4.3,3.4-4,5.9c0.3,2.6,1,5.1,2.1,7.5
		c0.2,0.4,0.5,0.9,0.7,1.3c-2.1,1-3.8,2.7-4.7,4.9c-3.7-4.5-7.1-9-12.2-12.1c-2.8-1.6-6.3-0.9-8.3,1.7c-1.7,2.3-2,6.4,0.5,8.5
		c1.5,1.2,3.5,2.6,4.6,4.2c0.2,0.2,0.3,0.5,0.4,0.8c-1-0.1-1.9-0.2-2.9-0.2c-1.1,0-2.2,0.2-3.2,0.5c-4.4,1.4-7.8,4.8-9.3,9.1
		c-1,3-1.3,6.3-0.8,9.5c-0.3,2.4,0.3,4.9,1.6,6.9c1.9,3,5.9,3.9,9,2c0.1-0.1,0.3-0.2,0.4-0.3c-0.8,1.1-1.5,2.3-2.1,3.4
		c-2.9,1.9-5.4,4.5-7.1,7.5c-2.4,4.4-2.5,9.7-0.1,14.1c0.3,0.6,0.7,1.2,1.2,1.7c-0.1,7.6,0.8,15.1,2.9,22.4
		c1.2,4.3,7.6,6.7,10.8,2.8c1.1-1.4,2.1-2.8,2.9-4.4c0.4,0.4,0.9,0.7,1.4,1c-1.3,1.8-2.8,3.5-4.5,5c-2.8,2.7-4.6,6.3-5.2,10.1
		c-1.2,9.5,8,16.6,16.8,11.9c4-2.2,6-6.1,7.7-10.2s3.3-8.3,5-12.4l3.3-8.3c0.2,1.7,0.4,3.3,0.7,4.9c0.7,3.9,2.1,7.8,5.6,10
		c4.3,2.7,10.4,1.5,13-3C561.7,381.6,561.3,377.6,561.2,374z"/>
	<path id="gnarly" class="st2" d="M262.2,401.6c-2.1-3.9-3.5-7-3.6-11.5c-0.1-2.7-1-4.4-2.1-6.8c-0.8-1.5-1-3.3-0.7-4.9
		c0.4-1.2,1.2-2.3,2.2-3.1c0.8-0.7,1.4-1.1,1.4-2.3c-0.1-1-1.2-2.3-1.8-3c-3.5-3.9-11.8-4.8-12.4-11c0,0,0-0.1,0-0.1
		c-0.6-0.2-1.1-0.3-1.7-0.4c0-0.3,0.1-0.5,0.1-0.8c0-3.8-3-6.1-6.4-6.5l-7.8-0.8c-0.1,0.1-0.3,0.3-0.4,0.4c-2.9,2-4.1,5.8-7.9,6.2
		s-6.7-3.8-10.3-2.6c-0.3,0.1-0.6,0.1-0.9,0.1c-1.2,1.8-1.9,3.9-1.8,6.1c0.2,4.2,3.2,7.4,6.9,9c-1.5,2.5-1.9,5.5-1.2,8.3
		c0.2,0.7,0.4,1.4,0.8,2c-0.4,3.3,1.5,6.9,5.5,7.2c0.3,0.8,0.8,1.6,1.4,2.3l6.3,6.4c-2.8,2.1-3.3,6.1-1.2,8.8
		c0.5,0.6,1.1,1.2,1.8,1.6c5.4,3.7,11.3,6.6,17.4,8.7c1.5,0.5,3.1,1.1,4.8,1.5c3.8,0.1,8.3-0.6,11-2.9
		C265.5,410.1,264.4,405.7,262.2,401.6z"/>
	<path id="me" class="st2" d="M349.2,287.1c-4.6,2.5-7.4,7.4-7.1,12.6c-2.9-4.5-7.5-9-13.5-7.6s-8.5,7.7-7,13.3
		c0,0.1,0.2,0.7,0.5,1.5c-4.7-2.6-10-5-14.2,0.2c-4,5-1.5,12.9,1.1,17.9c3.4,6.6,12.8,2,11.8-4.4c2.4,0.9,5,1,7.5,0.5
		c3.9-0.9,7-3.9,7.8-7.8c3.6,3,8.2,4.4,13,4.7c11.5,0.8,26.2-4.3,26.6-17.8S359.5,281.7,349.2,287.1z"/>
	<path id="running-late" class="st2" d="M367,388.2c-2-2-3.5-2.5-6.1-1.1c-2.2,1.1-4.1,2.5-6.7,2.6c-1.2,0-2.3-0.6-2.9-1.7
		c1.4-1.9,1.5-4.5,0.3-6.6c-3.6-6.9-12.5-6.8-18.3-2.9c-1.9,1.3-4,3.4-6.3,4.1c1.6-3.1,0.4-7-2.7-8.6c-0.9-0.5-1.9-0.7-2.9-0.7
		c-6.6-0.2-11,5.9-11,12c0,2.1,0.8,5.2,0.5,6.8c-0.1,0.7-0.4,1.3-0.8,1.9c-4.3,2.3-8.9,4-13.6,5.2c-4.6,1-9.2,1.9-9.9,7.4
		c-0.5,5,0.4,10.1,2.6,14.6c2.2,4.7,5.2,7.4,9.6,9.8c3.7,2,8,4.8,7.6,9.6c-0.2,1.8-1.5,3.6-1.8,5.4l0.4,0.4c-1.8,3.8,0,9.5,5.5,9.5
		c1.6,0.1,3.2-0.6,4.4-1.7c4-1.1,7.3-6.1,9.6-8.9c2.5-3.1,5-8.2,9.7-8.2c7,0,6.5,7.6,5.6,12.5c-0.7,2.5-1.1,5-1.3,7.6
		c0,0.5,0.1,1.5,0.1,1.2c0.1,0.3,0.1,0.5,0.1,0.5s0.1,0.1,0.3,0.2c-0.3-0.1,0.4,0,0.7,0c2.1-0.1,4.1-0.5,6.1-1.3
		c2.4-0.7,4.8-1.8,6.9-3.2c2.4-1.7,3.8-4.2,5.3-6.6c1.8-2.7,3.3-5.5,4.6-8.5c2.2-6.2-0.8-12.2-0.9-18.4c-0.1-6.5,3.8-11.8,6.1-17.6
		C369.8,398,371.3,392.6,367,388.2z"/>
	<path id="big-heart" class="st2" d="M357.5,522.3c-3,0.5-5.9,1.4-8.6,2.7c-2-7.4-13.9-4.6-12.5,3.4c0.4,2,0.2,4-0.5,5.9
		c-0.9,2.2-2.5,3.9-2.7,6.4c-0.6,6.4,6.6,10.7,12.5,9.8c5.6-0.9,7.4-5.7,8.2-10.5c5.3,0.5,11.2-1.1,13.4-6.5
		C369.9,526.9,364.2,520.9,357.5,522.3z"/>
	<path id="w" class="st2" d="M207.7,285.1c0-3.2-3-6.8-6.4-6.5c-7.4,0.8-11.4,6.3-14.2,12.7c-1.4-1.7-3.4-2.8-5.5-3.2
		c-2.9-0.4-5.8,0.8-7.5,3.2c-2.4-3-5.5-5.6-8.9-7.4c-7.3-3.8-13.9,7.3-6.5,11.1c2.8,1.3,5,3.5,6.6,6.1c2.1,3.7,2.6,7.9,6.6,10.4
		c3.2,2,7.4,1.9,10.5-0.3c0,0.3,0.1,0.6,0.1,0.9c0.4,3.5,2.6,6.5,6.4,6.5c3.5-0.1,6.4-2.9,6.4-6.5c0.1-4.3,0.9-8.6,2.3-12.7
		c0.7-1.9,1.5-3.8,2.5-5.6c0.3-0.5,0.5-1,0.9-1.5c0.7-0.9,1.9-1,0.2-0.8C204.8,291.2,207.7,288.9,207.7,285.1z"/>
	<path id="a-cat" class="st2" d="M363.4,502.8c-0.6-5.6-3.3-10.7-9.1-12.2c-5.1-1.3-11.1-0.2-16.3,0.1c-11.8,0.6-24.9-0.5-35.4,5.9
		c-4.6,2.8-8.6,5.6-14,6.8c-5.8,1.3-11.8,1.7-17.7,2.4c-2.7,0.2-5,1.9-5.9,4.4c-0.4-1-0.9-2-1.4-2.9c-0.7-1.4-2-2.4-3.5-2.8
		l-0.2-0.2c-1.9-1.8-4.6-2.3-7-1.3c-2.1,0.9-4.3,3.4-4,5.9c0.5,4.4,2.5,8.5,5.7,11.5c-0.1,0.4-0.2,0.7-0.3,1.1
		c-1.1-0.6-2.3-1.1-3.5-1.4c-2.6-0.8-5.4-0.7-7.9,0.3c-4.6,1.9-6.7,7.2-4.8,11.8c0.4,1,1,1.9,1.8,2.7c4,4.3,9.9,3.2,15.1,3.4
		c19.3,1,37.3,10.8,56.9,9.6c4.9-0.3,10.3-0.9,14.4-3.9c4.3-3.2,5.6-8.2,5.5-13.3c0-3.5-0.7-6.4,2.2-8.7c3.4-2.6,8.3-2.5,12.4-2.5
		c4.6,0,9.4-0.2,13.1-3.3C363.5,512.7,363.9,507.6,363.4,502.8z"/>
	<path id="quaver-1" class="st2" d="M540.7,193.1c-2.1-2.6-4.5-5-7.2-6.9c-6.7-4.4-15.4-0.7-16.1,7.4c-0.3,3.3,1.1,6,2.2,8.9
		c0.3,0.9,0.6,1.9,0.8,2.9c-0.5,0.1-1,0.3-1.5,0.6c-3.1,1.8-3.4,5.2-2.2,8.2c2.4,5.6,10.1,5.4,13.8,1.3c0.9-1,1.6-2.2,1.9-3.5
		c2.6,0.6,5.3,0.3,7.8-0.7c3.4-1.5,5.6-5,5.5-8.7C545.7,198.8,543,195.8,540.7,193.1z"/>
	<path id="quaver-2" class="st2" d="M420.7,501.3c0.6-3.6-1.4-7.8-6.1-7.8c-0.7,0-1.3,0.1-2,0.3c-4.5-1.2-9.9-0.2-14.3,0.7
		c-5.2,1.1-10.5,3.4-14.3,7.3c-4.2,4.4-6,10.1-6.9,16c-0.4,2.3-0.6,4.6-1,6.8c-3.3,1.1-6.2,3.1-7.5,6.5c-1.4,4.1-0.1,9,3.9,11.1
		c6.9,3.7,11.7-2,14.2-8.1c0.8,0.3,1.7,0.5,2.5,0.5l3.5,0.1c1.1,0,2.1-0.2,3.1-0.7c2,4.1,6.2,6.6,10.8,6.6c8-0.3,13.5-7.8,14.4-15.1
		c0.2-1.9,0.2-3.8-0.1-5.8c0.5-3.5,0.4-7.2,0.6-10.3C421.9,506.8,421.6,504,420.7,501.3z"/>
	<path id="mystery" class="st2" d="M134.9,514.8c-4.2-8.3-14.5-14-23.7-11.3c-5.4,1.6-9.4,5.9-9.3,11.7c0,0.3,0,0.7,0,1
		c-4.6,3.4-8.9,7.8-10.1,13.1c-1.9,1.8-3.5,3.8-4.7,6.2c-1.6,2.8-0.9,6.3,1.7,8.3c2.8,2.1,5.9,1.5,8.5-0.5l1.8-1.4
		c1-0.1,1.9-0.3,2.7-0.8c6.4-3.3,12.9-4.4,20-4.7c3.7-0.1,7.1-1.3,9.2-4.1c1-0.5,1.8-1.1,2.6-1.9
		C137.8,526.1,137.4,519.8,134.9,514.8z"/>
	<path id="the-thinker" class="st2" d="M422.4,87.3c-0.5-0.9-1.3-1.7-2.2-2.2c4.4-5.9-4.2-14-9.8-8.3c-3.2,3.2-6.3,6.7-9.2,10.2
		c-8.3,3-13.7,11.2-13,20c-3.1,6-5.6,12.4-7.4,18.9c-0.6,2-0.7,4-0.3,6l-0.7,0.6c-2.7,2.2-2.3,6.8,0,9.1c2.7,2.7,6.4,2.2,9.1,0
		c0.7-0.6,1.5-1.2,2.2-1.8c3.5-0.1,7.3-1.1,10.5-1.8c9.9-2.3,18.5-7.6,22.7-17.1C428.9,110,428.2,97.6,422.4,87.3z"/>
	<path id="fifty-five" class="st2" d="M437.5,234.9c-0.3-5.4-2.9-9-5.1-14.1c-1.9-4.4-3.9-9.5-3.5-14.4c0.1-2.1,1-4,2.5-5.5
		c-4.3-2.8-9.4-4.2-14.6-3.9c-0.2,0-0.5,0-0.7,0.1c-3.2-0.6-6.5-0.7-9.7-0.5c-4.3,0.4-8.4,1.8-12.6,3c-2.6-2.4-6.2-1.9-8.8,0.3
		c0.5-0.4,0,0-0.4-0.1l-0.7-0.2c-1.2-0.3-2.3-1-3.1-1.9c-2.9-2.8-5-6.3-8-8.9c-7-6.3-17.4-7.8-24.1,0c-6.2,7.2-5.9,16.8-3.9,25.6
		c1.1,5.1,3.7,10,7.7,12.9c0.9,3.2,3.3,5.7,6.5,6.7c-0.1,1.1-0.1,2.3,0.2,3.4c1,4.6,4.9,7.5,9.2,8.9c4.2,1.2,8.4,2.1,12.6,2.7
		c5.1,1,10.6,1.1,13.8-3.9c0.1-0.2,0.3-0.4,0.4-0.7c0.8,1,2,1.8,3.3,2.1c1.1,0.3,2.2,0.5,3.4,0.7c0.9,1.3,1.9,2.5,2.9,3.7
		c2.5,2.9,5.5,5.5,9.3,6.5c5.7,1.5,10.5-1.3,13.8-5.5c1.4-0.2,2.7-0.6,3.9-1.2C434.5,245.8,437.8,240.6,437.5,234.9z"/>
	<path id="touch-your-toes" class="st2" d="M145,289.7l-12.7-4c-4-1.2-8.9-3.6-13.2-2.8c-9,1.9-9.2,13.3-8.6,20.5
		c0.6,7.6,3,15.7,1.4,23.3c-1.6,7.9-4.3,15.7-0.7,23.5c3.6,7.6,13.2,11.5,20.9,7.6c3.4-1.8,6-4.8,7.2-8.5c0.5-1.6,0.7-3.3,0.6-5
		c-0.2-2.6-1.3-4.5-2-6.9s0.6-4,2-6.3c2.3-3.7,4.2-7.7,5.5-11.8c1.7-5.6,4-12.9,2-18.7C150.5,297.7,150.4,291.4,145,289.7z"/>
	<path id="ingress" class="st2" d="M450.2,358.5c-0.7-1.8-2.3-3.1-4.2-3.5c-4.7-1.2-9.7,0.3-13,3.8c-3.3,3.5-5,8.3-6.8,12.6
		c-3.3,8-6.7,21.8,5.2,24.4c4.2,1,8.5,0.8,12.5-0.6c4.9-1.9,7.7-6.2,8.7-11.2c1-4.8,1.6-9.6,1.9-14.5
		C455,365.3,453.8,360.9,450.2,358.5z"/>
	<path id="ten-gallon" class="st2" d="M170.5,413.1c-3.4-4.9-8.9-5.7-13.6-3.8c-1.2-0.2-2.4-0.3-3.7-0.2c-0.4-2.9-1.5-5.6-3.1-8
		c-2.4-3.7-9-4.2-11.2-0.2h-0.1c-3.3-0.4-6.6,3.3-6.4,6.5c0,0.3,0,0.6,0,1c-2.1-0.1-4.1,0.7-5.6,2.2c-2.6,1.6-3.6,4.9-2.3,7.6
		c-0.6,1-0.9,2.1-0.9,3.2c0,2,1,3.9,2.6,5.1c-0.2,1.5-0.3,2.9-0.4,4.4c0,0.8-0.1,1.5-0.1,2.3c-2.6,5.4-8.6,8.4-10.3,14.6
		c-1.7,6.4,1,13.6,6,17.8c5.7,4.8,13.5,5.7,20.4,3.3c12-4.1,18.4-15.4,23.4-26.5c2.9-2.2,4.9-5.2,5.9-8.7c0.6-2.2,0.8-4.4,0.6-6.6
		C173.2,422.4,173.7,417.6,170.5,413.1z"/>
	<path id="the-king" class="st2" d="M523,226.3c-1.3-1.1-2.6-2.1-3.9-3c0.7-0.5,1.3-1.2,1.8-2c1.6-2.7,0.9-7.4-2.3-8.8l0,0
		c0.1-0.6,0.1-1.3,0.1-1.9c0-0.9,0-1.8-0.1-2.7c1-2,1.3-4.2,0.7-6.4c-0.9-2.7-2.6-5.2-4.9-7c-5.4-9.1-14.9-15-25.5-15.7
		c-8.5-0.6-16.7,2.8-23.1,8.3c-5.1,4.4-15.9,18.2-5.4,22.7c0.5,0.2,0.9,0.3,1.4,0.4l0.1-0.3c1.4,0.2,2.8-0.1,4-0.8
		c2.8-1.6,6.4-0.9,9.3,0.1c2,0.7,2.6,3.1,2.9,5.3c0.2,1.7,0.9,3.4,2.1,4.7c-0.1,0.2-0.2,0.5-0.3,0.7c0.6,2,1.4,4,2.2,6
		c1.8,4.1,4.7,7.6,8.5,10c2.3,1.6,5.4,1.2,7.3-0.8c4,3.1,7.7,6.5,10.9,10.3c0,0.1,0.1,0.2,0.1,0.3c1.1,4.4,3.4,8.4,7.9,10
		c4.5,1.6,10.7-0.1,12.1-5.2c0.2-0.7,0.3-1.5,0.2-2.3c0.6-0.9,1.1-1.9,1.4-2.9C532.8,238.2,528.3,230.9,523,226.3z"/>
	<path id="face" class="st2" d="M402.2,276.6c-6.5-3.5-14.1-1.4-20.5,1.2c-5.3,2.4-10.4,5.2-15.2,8.6c-6.6-0.8-13.7-0.2-17.5,6.1
		c-4.1,6.8,0,13.9,3.3,20.1c6.1,11.6,14.1,25,28.3,26.8c6.6,1,13.3-1.6,17.6-6.7c4.1-5,5.8-11.2,6.3-17.5c0.6-6.9-0.1-13.4,2.3-20
		C409.1,288.6,409.3,280.6,402.2,276.6z"/>
</g>
</svg>
